<?xml version="1.0" encoding="UTF-8" standalone="no"?>
<svg
   xmlns:dc="http://purl.org/dc/elements/1.1/"
   xmlns:cc="http://creativecommons.org/ns#"
   xmlns:rdf="http://www.w3.org/1999/02/22-rdf-syntax-ns#"
   xmlns:svg="http://www.w3.org/2000/svg"
   xmlns="http://www.w3.org/2000/svg"
   xmlns:sodipodi="http://sodipodi.sourceforge.net/DTD/sodipodi-0.dtd"
   xmlns:inkscape="http://www.inkscape.org/namespaces/inkscape"
   width="40"
   height="40"
   viewBox="0 0 39.999999 40"
   version="1.1"
   id="svg4"
   sodipodi:docname="audio_90.svg"
   inkscape:version="1.0 (4035a4fb49, 2020-05-01)">
  <metadata
     id="metadata10">
    <rdf:RDF>
      <cc:Work
         rdf:about="">
        <dc:format>image/svg+xml</dc:format>
        <dc:type
           rdf:resource="http://purl.org/dc/dcmitype/StillImage" />
        <dc:title></dc:title>
      </cc:Work>
    </rdf:RDF>
  </metadata>
  <defs
     id="defs8" />
  <sodipodi:namedview
     scale-x="5"
     inkscape:document-rotation="0"
     pagecolor="#ffffff"
     bordercolor="#666666"
     borderopacity="1"
     objecttolerance="10"
     gridtolerance="10"
     guidetolerance="10"
     inkscape:pageopacity="0"
     inkscape:pageshadow="2"
     inkscape:window-width="1508"
     inkscape:window-height="1198"
     id="namedview6"
     showgrid="false"
     inkscape:zoom="22.198414"
     inkscape:cx="18.110894"
     inkscape:cy="19.378558"
     inkscape:window-x="2367"
     inkscape:window-y="90"
     inkscape:window-maximized="0"
     inkscape:current-layer="svg4" />
  <path
     style="stroke-width:5"
     d="M 34.3,5.8 C 30.7,2.2 25.75,0 20.25,0 14.75,0 9.65,2.15 6.05,5.8 l 3.6,3.5999997 C 12.35,6.6999997 16.1,5 20.3,5 24.45,5 28.05,6.6499997 30.75,9.3999997 L 34.35,5.8 Z m 0,28.45 -3.6,-3.6 c -2.7,2.7 -6.3,4.4 -10.45,4.4 -4.15,0 -7.9,-1.65 -10.65,-4.4 L 6,34.25 c 3.6,3.6 8.7,5.8 14.2,5.8 5.5,0 10.45,-2.15 14.05,-5.8 z M 27.25,13 c -1.8,-1.8 -4.3,-2.95 -7.05,-2.95 -2.75,0 -5.4,1.15 -7.2,2.95 l 3.6,3.45 c 0.9,-0.9 2.2,-1.4 3.6,-1.4 1.4,0 2.5,0.5 3.45,1.4 z m 0,14.05 -3.6,-3.45 C 22.75,24.5 21.6,25 20.2,25 18.8,25 17.5,24.5 16.6,23.6 L 13,27.05 c 1.8,1.8 4.45,2.95 7.2,2.95 2.75,0 5.25,-1.15 7.05,-2.95 z"
     id="path2" />
</svg>
