<svg width="40" height="40" viewBox="0 0 40 40" xmlns="http://www.w3.org/2000/svg">

 <g>
  <title>Layer 1</title>
  <path transform="translate(0 2)" id="svg_1" d="m27.649218,38.899189l8.000002,0l0,-9.99996l7.25,0l-11.250006,-11.25l-11.249996,11.25l7.25,0l0,9.99996zm-27.999999,-39.999969l30.249999,0l5.750002,5.75l0,14.500009l-4.000006,-3.999999l0,-9.00001l-3.249996,-3.25l-0.75,0l0,13.000009l-19.999999,0l0,-13.000009l-4,0l0,27.999967l21.999999,0l0,4.000002l-25.999999,0l0,-35.999969zm18.999999,4l0,10.000009l5,0l0,-10.000009l-5,0z" stroke-linejoin="round" stroke-width="0.2" fill="black"/>
 </g>
</svg>
