<?xml version="1.0"?>
<svg width="76" height="76" xmlns="http://www.w3.org/2000/svg" xmlns:svg="http://www.w3.org/2000/svg">

 <g>
  <title>Layer 1</title>
  <path stroke="#0FF" id="svg_1" d="m38,8c1.9902,0 3.9352,0.19379 5.817001,0.56355l-0.778603,2.90575c-1.632298,-0.308101 -3.316498,-0.4693 -5.038399,-0.4693l-0.354301,0.0023l-0.2621,-2.9961l0.616402,-0.0062zm28.403603,20.318701l-2.905804,0.778599c-0.600899,-1.721199 -1.371201,-3.362999 -2.290897,-4.905399l2.463799,-1.7251c1.110603,1.8314 2.030701,3.7913 2.732903,5.8519zm-11.320801,-11.2285l1.725098,-2.4638c1.680401,1.3539 3.2118,2.8853 4.565701,4.565701l-2.463799,1.7251c-1.144802,-1.399601 -2.427402,-2.682199 -3.827,-3.827zm-8.180103,-4.588l0.778603,-2.90574c2.060699,0.70214 4.0205,1.622339 5.851997,2.73284l-1.725197,2.4638c-1.5424,-0.919701 -3.1842,-1.690001 -4.905403,-2.2909zm-18.472498,0.2429l-1.271301,-2.7264c1.986101,-0.77004 4.074701,-1.33472 6.2395,-1.66797l0.262199,2.99617c-1.810099,0.2924 -3.559799,0.7648 -5.230398,1.3982zm-8.0557,4.8009l-2.126501,-2.126499c1.618,-1.4166 3.3897,-2.662001 5.286701,-3.708l1.271299,2.7263c-1.5826,0.8881 -3.066599,1.930999 -4.431499,3.108199zm-5.9367,7.26l-2.7264,-1.271299c1.0461,-1.897001 2.2916,-3.668701 3.7081,-5.2868l2.1266,2.1266c-1.177301,1.364901 -2.220201,2.8489 -3.1083,4.431499zm-3.0909,8.8545l-2.99617,-0.2621c0.33325,-2.164799 0.89793,-4.253399 1.66797,-6.2395l2.7264,1.271301c-0.6334,1.670599 -1.1058,3.4203 -1.3982,5.230299zm-0.3469,4.3395c0,1.721901 0.1612,3.406101 0.4693,5.038399l-2.905741,0.7785c-0.369749,-1.881798 -0.56354,-3.826698 -0.56354,-5.816898l0.0062,-0.616501l2.99608,0.262199l-0.0023,0.354301zm57,0l-0.006203,0.616501l-2.996094,-0.2621l0.002296,-0.354401c0,-1.721802 -0.161201,-3.405998 -0.469299,-5.0383l2.905701,-0.778599c0.369797,1.881798 0.563599,3.826698 0.563599,5.816898zm-30,30c-1.9902,0 -3.935101,-0.193802 -5.816898,-0.563499l0.778599,-2.905701c1.632301,0.307999 3.316498,0.4692 5.0383,0.4692l0.354401,-0.002296l0.2621,2.996094l-0.616501,0.006203zm-28.40356,-20.318699l2.90576,-0.778603c0.6009,1.721203 1.3712,3.363003 2.2909,4.905403l-2.4638,1.725098c-1.1106,-1.831398 -2.0307,-3.791199 -2.73286,-5.851898zm11.32076,11.2286l-1.7251,2.463699c-1.680401,-1.353901 -3.211801,-2.8853 -4.565701,-4.565701l2.463699,-1.725098c1.144901,1.399597 2.4275,2.682198 3.827101,3.827099zm8.180201,4.587997l-0.778601,2.905704c-2.060699,-0.702202 -4.0205,-1.622299 -5.851999,-2.732903l1.7251,-2.463799c1.5424,0.919697 3.1842,1.689999 4.9055,2.290997zm18.472401,-0.242897l1.271297,2.726299c-1.986099,0.770103 -4.0746,1.334702 -6.239399,1.667999l-0.262199,-2.996201c1.810001,-0.292397 3.559799,-0.764797 5.230301,-1.398098zm8.055798,-4.801102l2.126503,2.126602c-1.618103,1.416599 -3.389801,2.661999 -5.2868,3.708096l-1.271301,-2.726398c1.5826,-0.8881 3.066601,-1.931 4.431599,-3.108299zm5.9366,-7.259899l2.726299,1.2714c-1.045998,1.896999 -2.291397,3.668598 -3.707996,5.286598l-2.126503,-2.126499c1.1772,-1.364899 2.2201,-2.8489 3.1082,-4.431499zm3.0909,-8.8545l2.996201,0.2621c-0.333298,2.164898 -0.898003,4.253399 -1.667999,6.239601l-2.726398,-1.271301c0.6334,-1.670601 1.105801,-3.420399 1.398197,-5.2304z" stroke-linejoin="round" stroke-width="0" fill="#bfbfbf"/>
 </g>
</svg>