<?xml version="1.0" encoding="UTF-8"?>

<svg version="1.2" baseProfile="tiny" width="51.87mm" height="53.8mm" viewBox="10150 16310 5187 5380" preserveAspectRatio="xMidYMid" fill-rule="evenodd" clip-path="url(#presentation_clip_path)" stroke-width="28.222" stroke-linejoin="round" xmlns="http://www.w3.org/2000/svg" xmlns:ooo="http://xml.openoffice.org/svg/export" xmlns:xlink="http://www.w3.org/1999/xlink" xml:space="preserve">
 <defs class="ClipPathGroup">
  <clipPath id="presentation_clip_path" clipPathUnits="userSpaceOnUse">
   <rect x="0" y="0" width="5187" height="5380"/>
  </clipPath>
 </defs>
 <defs class="TextShapeIndex">
  <g ooo:slide="id1" ooo:id-list="id3 id4 id5 id6 id7 id8 id9 id10 id11 id12 id13 id14 id15"/>
 </defs>
 <defs class="EmbeddedBulletChars">
  <g id="bullet-char-template(57356)" transform="scale(0.00048828125,-0.00048828125)">
   <path d="M 580,1141 L 1163,571 580,0 -4,571 580,1141 Z"/>
  </g>
  <g id="bullet-char-template(57354)" transform="scale(0.00048828125,-0.00048828125)">
   <path d="M 8,1128 L 1137,1128 1137,0 8,0 8,1128 Z"/>
  </g>
  <g id="bullet-char-template(10146)" transform="scale(0.00048828125,-0.00048828125)">
   <path d="M 174,0 L 602,739 174,1481 1456,739 174,0 Z M 1358,739 L 309,1346 659,739 1358,739 Z"/>
  </g>
  <g id="bullet-char-template(10132)" transform="scale(0.00048828125,-0.00048828125)">
   <path d="M 2015,739 L 1276,0 717,0 1260,543 174,543 174,936 1260,936 717,1481 1274,1481 2015,739 Z"/>
  </g>
  <g id="bullet-char-template(10007)" transform="scale(0.00048828125,-0.00048828125)">
   <path d="M 0,-2 C -7,14 -16,27 -25,37 L 356,567 C 262,823 215,952 215,954 215,979 228,992 255,992 264,992 276,990 289,987 310,991 331,999 354,1012 L 381,999 492,748 772,1049 836,1024 860,1049 C 881,1039 901,1025 922,1006 886,937 835,863 770,784 769,783 710,716 594,584 L 774,223 C 774,196 753,168 711,139 L 727,119 C 717,90 699,76 672,76 641,76 570,178 457,381 L 164,-76 C 142,-110 111,-127 72,-127 30,-127 9,-110 8,-76 1,-67 -2,-52 -2,-32 -2,-23 -1,-13 0,-2 Z"/>
  </g>
  <g id="bullet-char-template(10004)" transform="scale(0.00048828125,-0.00048828125)">
   <path d="M 285,-33 C 182,-33 111,30 74,156 52,228 41,333 41,471 41,549 55,616 82,672 116,743 169,778 240,778 293,778 328,747 346,684 L 369,508 C 377,444 397,411 428,410 L 1163,1116 C 1174,1127 1196,1133 1229,1133 1271,1133 1292,1118 1292,1087 L 1292,965 C 1292,929 1282,901 1262,881 L 442,47 C 390,-6 338,-33 285,-33 Z"/>
  </g>
  <g id="bullet-char-template(9679)" transform="scale(0.00048828125,-0.00048828125)">
   <path d="M 813,0 C 632,0 489,54 383,161 276,268 223,411 223,592 223,773 276,916 383,1023 489,1130 632,1184 813,1184 992,1184 1136,1130 1245,1023 1353,916 1407,772 1407,592 1407,412 1353,268 1245,161 1136,54 992,0 813,0 Z"/>
  </g>
  <g id="bullet-char-template(8226)" transform="scale(0.00048828125,-0.00048828125)">
   <path d="M 346,457 C 273,457 209,483 155,535 101,586 74,649 74,723 74,796 101,859 155,911 209,963 273,989 346,989 419,989 480,963 531,910 582,859 608,796 608,723 608,648 583,586 532,535 482,483 420,457 346,457 Z"/>
  </g>
  <g id="bullet-char-template(8211)" transform="scale(0.00048828125,-0.00048828125)">
   <path d="M -4,459 L 1135,459 1135,606 -4,606 -4,459 Z"/>
  </g>
 </defs>
 <defs class="TextEmbeddedBitmaps"/>
 <g class="SlideGroup">
  <g>
   <g id="id1" class="Slide" clip-path="url(#presentation_clip_path)">
    <g class="Page">
     <g class="Group">
      <g class="com.sun.star.drawing.LineShape">
       <g id="id3">
        <path fill="none" stroke="rgb(0,0,0)" stroke-width="380" stroke-linejoin="round" d="M 13143,16500 L 13143,21500"/>
       </g>
      </g>
      <g class="Group">
       <g class="com.sun.star.drawing.OpenBezierShape">
        <g id="id4">
         <path fill="none" stroke="rgb(0,0,0)" stroke-width="80" stroke-linejoin="round" d="M 10205,16500 C 10205,16934 10205,17369 10205,17804"/>
        </g>
       </g>
       <g class="com.sun.star.drawing.ClosedBezierShape">
        <g id="id5">
         <path fill="none" stroke="rgb(0,0,0)" stroke-width="160" stroke-linejoin="round" d="M 12324,20493 C 12271,20431 12225,20297 12178,20070 12131,19843 12098,19604 12072,19287 12046,18970 12033,18682 12033,18350 12033,18018 12046,17738 12072,17457 12098,17176 12132,16963 12178,16796 12224,16629 12271,16544 12324,16544 12377,16544 12423,16630 12469,16822 12515,17014 12549,17265 12575,17609 12601,17953 12614,18300 12614,18695 12614,19091 12602,19415 12575,19733 12548,20051 12515,20249 12469,20389 12423,20529 12377,20555 12324,20493 Z"/>
        </g>
       </g>
       <g class="com.sun.star.drawing.OpenBezierShape">
        <g id="id6">
         <path fill="none" stroke="rgb(0,0,0)" stroke-width="160" stroke-linejoin="round" d="M 11613,16500 C 11613,17484 11613,18469 11613,19453"/>
        </g>
       </g>
       <g class="com.sun.star.drawing.ClosedBezierShape">
        <g id="id7">
         <path fill="none" stroke="rgb(0,0,0)" stroke-width="120" stroke-linejoin="round" d="M 10910,18454 C 10857,18416 10812,18345 10765,18228 10718,18111 10686,17991 10660,17836 10634,17681 10621,17541 10621,17382 10621,17223 10633,17088 10660,16953 10687,16818 10719,16717 10765,16636 10811,16555 10857,16513 10910,16513 10963,16513 11008,16556 11054,16651 11100,16746 11133,16872 11160,17047 11187,17222 11198,17393 11198,17592 11198,17791 11187,17953 11160,18109 11133,18265 11100,18359 11054,18424 11008,18489 10963,18493 10910,18454 Z"/>
        </g>
       </g>
      </g>
      <g class="Group">
       <g class="com.sun.star.drawing.EllipseShape">
        <g id="id8">
         <path fill="rgb(0,0,0)" stroke="none" d="M 14667,20491 C 14568,20491 14485,20473 14400,20434 14315,20394 14254,20345 14205,20277 14156,20208 14134,20141 14134,20062 14134,19983 14156,19916 14205,19848 14254,19779 14315,19730 14400,19690 14485,19651 14568,19633 14667,19633 14765,19633 14848,19651 14933,19690 15018,19730 15079,19779 15128,19848 15177,19916 15199,19983 15199,20062 15199,20141 15177,20208 15128,20277 15079,20345 15018,20394 14933,20434 14848,20473 14765,20491 14667,20491 L 14667,20491 Z"/>
         <path fill="none" stroke="rgb(0,0,0)" d="M 14667,20491 C 14568,20491 14485,20473 14400,20434 14315,20394 14254,20345 14205,20277 14156,20208 14134,20141 14134,20062 14134,19983 14156,19916 14205,19848 14254,19779 14315,19730 14400,19690 14485,19651 14568,19633 14667,19633 14765,19633 14848,19651 14933,19690 15018,19730 15079,19779 15128,19848 15177,19916 15199,19983 15199,20062 15199,20141 15177,20208 15128,20277 15079,20345 15018,20394 14933,20434 14848,20473 14765,20491 14667,20491 Z"/>
        </g>
       </g>
       <g class="com.sun.star.drawing.LineShape">
        <g id="id9">
         <path fill="none" stroke="rgb(0,0,0)" stroke-width="150" stroke-linejoin="miter" d="M 15132,20062 L 15132,21500"/>
        </g>
       </g>
      </g>
      <g class="Group">
       <g class="com.sun.star.drawing.LineShape">
        <g id="id10">
         <path fill="none" stroke="rgb(0,0,0)" stroke-width="280" stroke-linejoin="miter" d="M 13799,18344 L 13799,19689"/>
        </g>
       </g>
       <g class="com.sun.star.drawing.LineShape">
        <g id="id11">
         <path fill="none" stroke="rgb(0,0,0)" stroke-width="280" stroke-linejoin="miter" d="M 13799,19014 L 15197,19014"/>
        </g>
       </g>
      </g>
      <g class="com.sun.star.drawing.LineShape">
       <g id="id12">
        <path fill="none" stroke="rgb(0,0,0)" stroke-width="280" stroke-linejoin="miter" d="M 13799,20194 L 13799,21489"/>
       </g>
      </g>
      <g class="com.sun.star.drawing.PolyLineShape">
       <g id="id13">
        <path fill="none" stroke="rgb(0,0,0)" stroke-width="280" stroke-linejoin="miter" d="M 13799,16500 L 13799,17663 14276,17663"/>
       </g>
      </g>
      <g class="com.sun.star.drawing.CustomShape">
       <g id="id14">
        <path fill="rgb(0,0,0)" stroke="none" d="M 14430,18043 L 14679,18017 14681,18041 14684,18066 14688,18089 14691,18108 14695,18127 14701,18146 14707,18161 14712,18176 14718,18188 14723,18197 14729,18207 14734,18214 14741,18222 14748,18229 14754,18237 14761,18243 14769,18247 14777,18252 14784,18256 14792,18258 14810,18262 14828,18264 14841,18264 14854,18260 14866,18256 14877,18252 14888,18245 14898,18237 14902,18233 14907,18228 14910,18224 14915,18218 14921,18207 14925,18201 14928,18195 14930,18190 14933,18182 14936,18176 14937,18171 14939,18163 14940,18157 14941,18150 14942,18142 14944,18136 14945,18129 14945,18121 14945,18114 14945,18106 14945,18100 14944,18093 14942,18087 14941,18081 14940,18074 14939,18068 14937,18060 14936,18055 14933,18049 14928,18036 14922,18024 14916,18013 14912,18007 14908,18001 14897,17992 14883,17981 14868,17971 14850,17960 14830,17950 14782,17929 14740,17912 14702,17893 14666,17874 14634,17853 14605,17830 14579,17806 14556,17779 14536,17753 14527,17739 14519,17724 14511,17709 14504,17694 14497,17678 14491,17663 14485,17646 14481,17629 14476,17610 14472,17593 14468,17574 14466,17555 14464,17536 14463,17515 14462,17473 14463,17445 14464,17418 14467,17392 14471,17365 14476,17338 14483,17314 14491,17287 14500,17262 14510,17238 14521,17215 14533,17194 14547,17173 14562,17156 14577,17137 14594,17122 14613,17107 14633,17093 14654,17082 14679,17072 14703,17063 14731,17057 14760,17053 14790,17050 14822,17050 14861,17051 14899,17055 14933,17065 14966,17076 14996,17089 15022,17107 15048,17127 15059,17139 15070,17152 15080,17165 15090,17181 15099,17196 15108,17211 15117,17228 15125,17247 15132,17266 15138,17285 15144,17306 15149,17329 15159,17376 15166,17426 15172,17481 14925,17506 14921,17483 14918,17460 14915,17439 14909,17422 14903,17405 14901,17395 14898,17388 14895,17382 14891,17374 14887,17369 14883,17363 14879,17357 14876,17354 14871,17348 14866,17344 14857,17336 14846,17331 14834,17325 14822,17321 14810,17319 14797,17319 14786,17319 14774,17321 14765,17323 14757,17327 14748,17333 14744,17335 14741,17336 14738,17340 14734,17344 14731,17348 14728,17352 14722,17359 14720,17365 14718,17369 14715,17374 14713,17378 14712,17384 14710,17388 14709,17393 14708,17399 14707,17405 14705,17411 14705,17416 14704,17422 14704,17428 14704,17433 14704,17437 14704,17441 14705,17447 14705,17450 14707,17454 14707,17458 14708,17462 14709,17466 14711,17469 14712,17473 14715,17481 14719,17488 14723,17496 14725,17500 14729,17504 14732,17507 14735,17509 14744,17517 14754,17523 14765,17530 14779,17536 14811,17549 14891,17582 14958,17612 14988,17627 15014,17644 15037,17659 15057,17677 15075,17694 15091,17711 15107,17730 15122,17751 15135,17770 15146,17792 15157,17815 15166,17838 15174,17863 15180,17887 15187,17912 15192,17939 15195,17967 15197,17994 15199,18022 15199,18053 15198,18087 15196,18121 15193,18153 15188,18188 15182,18218 15174,18250 15165,18279 15154,18309 15142,18338 15129,18364 15115,18389 15100,18414 15084,18435 15067,18454 15048,18473 15028,18488 15007,18501 14985,18514 14961,18524 14936,18533 14910,18539 14882,18545 14853,18547 14823,18549 14771,18547 14724,18539 14680,18528 14641,18513 14623,18503 14605,18494 14590,18482 14574,18469 14560,18454 14547,18440 14535,18423 14524,18406 14504,18370 14487,18330 14472,18288 14458,18245 14448,18197 14440,18148 14434,18096 14430,18043 Z"/>
       </g>
      </g>
      <g class="com.sun.star.drawing.OpenBezierShape">
       <g id="id15">
        <path fill="none" stroke="rgb(184,0,71)" stroke-width="100" stroke-linejoin="round" d="M 12635,21226 C 12549,21565 12514,21421 12461,21178 12408,20935 12375,20706 12287,21123 L 12287,21123 C 12200,21633 12165,21418 12113,21061 12061,20704 12026,20380 11939,20992 L 11939,20979 C 11852,21710 11817,21400 11764,20898 11711,20396 11677,19947 11591,20806 L 11591,20806 C 11503,21816 11469,21391 11416,20705 11363,20019 11329,19423 11242,20594 L 11242,20590 11242,20590 C 11154,21944 11119,21376 11068,20466 11017,19556 10981,18749 10893,20296 L 10893,20296 C 10807,22071 10772,21330 10719,20145 10666,18960 10631,17967 10545,19976 L 10545,19976 C 10458,22250 10423,21300 10371,19794 10319,18288 10284,17044 10200,19598"/>
       </g>
      </g>
     </g>
    </g>
   </g>
  </g>
 </g>
</svg>