<svg width="43" height="43" xmlns="http://www.w3.org/2000/svg">

 <g>
  <title>background</title>
  <rect fill="none" id="canvas_background" height="402" width="582" y="-1" x="-1"/>
 </g>
 <g>
  <title>Layer 1</title>
  <path fill="#000000" stroke-width="0.2" stroke-linejoin="round" d="m27.9,21.65l8.000002,0l0,10l7.25,0l-11.250002,11.250002l-11.25,-11.250002l7.25,0l0,-10zm-28,-19l30.25,0l5.750002,5.75l0,12.25l-4.000002,0l0,-10.75l-3.25,-3.25l-0.75,0l0,13l-20,0l0,-13l-4,0l0,28.000001l18.25,0l4,4l-26.25,0l0,-36.000001zm19,4l0,10l5,0l0,-10l-5,0z" id="svg_1"/>
 </g>
</svg>