<?xml version="1.0" encoding="UTF-8"?>

<svg version="1.2" baseProfile="tiny" width="31.78mm" height="31.75mm" viewBox="12747 18247 3178 3175" preserveAspectRatio="xMidYMid" fill-rule="evenodd" stroke-width="28.222" stroke-linejoin="round" xmlns="http://www.w3.org/2000/svg" xmlns:ooo="http://xml.openoffice.org/svg/export" xmlns:xlink="http://www.w3.org/1999/xlink" xml:space="preserve">
 <defs class="ClipPathGroup">
  <clipPath id="presentation_clip_path" clipPathUnits="userSpaceOnUse">
   <rect x="12747" y="18247" width="3178" height="3175"/>
  </clipPath>
 </defs>
 <defs class="TextShapeIndex">
  <g ooo:slide="id1" ooo:id-list="id3 id4 id5 id6 id7 id8"/>
 </defs>
 <defs class="EmbeddedBulletChars">
  <g id="bullet-char-template(57356)" transform="scale(0.00048828125,-0.00048828125)">
   <path d="M 580,1141 L 1163,571 580,0 -4,571 580,1141 Z"/>
  </g>
  <g id="bullet-char-template(57354)" transform="scale(0.00048828125,-0.00048828125)">
   <path d="M 8,1128 L 1137,1128 1137,0 8,0 8,1128 Z"/>
  </g>
  <g id="bullet-char-template(10146)" transform="scale(0.00048828125,-0.00048828125)">
   <path d="M 174,0 L 602,739 174,1481 1456,739 174,0 Z M 1358,739 L 309,1346 659,739 1358,739 Z"/>
  </g>
  <g id="bullet-char-template(10132)" transform="scale(0.00048828125,-0.00048828125)">
   <path d="M 2015,739 L 1276,0 717,0 1260,543 174,543 174,936 1260,936 717,1481 1274,1481 2015,739 Z"/>
  </g>
  <g id="bullet-char-template(10007)" transform="scale(0.00048828125,-0.00048828125)">
   <path d="M 0,-2 C -7,14 -16,27 -25,37 L 356,567 C 262,823 215,952 215,954 215,979 228,992 255,992 264,992 276,990 289,987 310,991 331,999 354,1012 L 381,999 492,748 772,1049 836,1024 860,1049 C 881,1039 901,1025 922,1006 886,937 835,863 770,784 769,783 710,716 594,584 L 774,223 C 774,196 753,168 711,139 L 727,119 C 717,90 699,76 672,76 641,76 570,178 457,381 L 164,-76 C 142,-110 111,-127 72,-127 30,-127 9,-110 8,-76 1,-67 -2,-52 -2,-32 -2,-23 -1,-13 0,-2 Z"/>
  </g>
  <g id="bullet-char-template(10004)" transform="scale(0.00048828125,-0.00048828125)">
   <path d="M 285,-33 C 182,-33 111,30 74,156 52,228 41,333 41,471 41,549 55,616 82,672 116,743 169,778 240,778 293,778 328,747 346,684 L 369,508 C 377,444 397,411 428,410 L 1163,1116 C 1174,1127 1196,1133 1229,1133 1271,1133 1292,1118 1292,1087 L 1292,965 C 1292,929 1282,901 1262,881 L 442,47 C 390,-6 338,-33 285,-33 Z"/>
  </g>
  <g id="bullet-char-template(9679)" transform="scale(0.00048828125,-0.00048828125)">
   <path d="M 813,0 C 632,0 489,54 383,161 276,268 223,411 223,592 223,773 276,916 383,1023 489,1130 632,1184 813,1184 992,1184 1136,1130 1245,1023 1353,916 1407,772 1407,592 1407,412 1353,268 1245,161 1136,54 992,0 813,0 Z"/>
  </g>
  <g id="bullet-char-template(8226)" transform="scale(0.00048828125,-0.00048828125)">
   <path d="M 346,457 C 273,457 209,483 155,535 101,586 74,649 74,723 74,796 101,859 155,911 209,963 273,989 346,989 419,989 480,963 531,910 582,859 608,796 608,723 608,648 583,586 532,535 482,483 420,457 346,457 Z"/>
  </g>
  <g id="bullet-char-template(8211)" transform="scale(0.00048828125,-0.00048828125)">
   <path d="M -4,459 L 1135,459 1135,606 -4,606 -4,459 Z"/>
  </g>
 </defs>
 <defs class="TextEmbeddedBitmaps"/>
 <g class="SlideGroup">
  <g>
   <g id="id1" class="Slide" clip-path="url(#presentation_clip_path)">
    <g class="Page">
     <g class="Group">
      <g class="Group">
       <g class="com.sun.star.drawing.OpenBezierShape">
        <g id="id3">
         <path fill="none" stroke="rgb(102,102,102)" stroke-width="200" stroke-linejoin="round" d="M 12847,18347 C 12847,18611 12847,18876 12847,19142"/>
        </g>
       </g>
       <g class="com.sun.star.drawing.OpenBezierShape">
        <g id="id4">
         <path fill="none" stroke="rgb(102,102,102)" stroke-width="200" stroke-linejoin="round" d="M 14336,18348 C 14336,18991 14336,19636 14336,20280"/>
        </g>
       </g>
       <g class="com.sun.star.drawing.EllipseShape">
        <g id="id5">
         <path fill="none" stroke="rgb(102,102,102)" stroke-width="200" stroke-linejoin="round" d="M 13592,19706 C 13545,19706 13506,19678 13465,19616 13425,19555 13396,19478 13373,19371 13350,19264 13339,19159 13339,19036 13339,18913 13350,18808 13373,18701 13396,18594 13425,18517 13465,18456 13506,18394 13545,18366 13592,18366 13638,18366 13677,18394 13718,18456 13758,18517 13787,18594 13810,18701 13833,18808 13844,18913 13844,19036 13844,19159 13833,19264 13810,19371 13787,19478 13758,19555 13718,19616 13677,19678 13638,19706 13592,19706 L 13592,19706 Z"/>
        </g>
       </g>
       <g class="com.sun.star.drawing.EllipseShape">
        <g id="id6">
         <path fill="none" stroke="rgb(102,102,102)" stroke-width="200" stroke-linejoin="round" d="M 15081,20664 C 15027,20664 14981,20616 14934,20510 14888,20404 14854,20273 14827,20090 14800,19906 14788,19727 14788,19515 14788,19303 14800,19124 14827,18941 14854,18757 14888,18626 14934,18520 14981,18414 15027,18366 15081,18366 15134,18366 15180,18414 15227,18520 15273,18626 15307,18757 15334,18941 15361,19124 15373,19303 15373,19515 15373,19727 15361,19906 15334,20090 15307,20273 15273,20404 15227,20510 15180,20616 15134,20664 15081,20664 L 15081,20664 Z"/>
        </g>
       </g>
       <g class="com.sun.star.drawing.LineShape">
        <g id="id7">
         <path fill="none" stroke="rgb(102,102,102)" stroke-width="200" stroke-linejoin="round" d="M 15825,18347 L 15825,21238"/>
        </g>
       </g>
      </g>
      <g class="com.sun.star.drawing.OpenBezierShape">
       <g id="id8">
        <path fill="none" stroke="rgb(184,0,71)" stroke-width="150" stroke-linejoin="round" d="M 15621,21247 C 15527,21417 15484,21344 15420,21222 15356,21098 15314,20980 15220,21192 15125,21454 15082,21342 15017,21156 14952,20970 14911,20798 14818,21117 L 14818,21111 C 14726,21498 14683,21335 14617,21064 14551,20792 14509,20546 14418,21009 14324,21561 14282,21331 14216,20949 14151,20566 14106,20230 14016,20880 L 14016,20877 C 13924,21640 13880,21321 13817,20800 13753,20280 13708,19812 13616,20695 13525,21722 13480,21293 13416,20597 13351,19901 13310,19309 13217,20487 13122,21839 13080,21275 13020,20366 12960,19455 12918,18694 12825,20234"/>
       </g>
      </g>
     </g>
    </g>
   </g>
  </g>
 </g>
</svg>