<?xml version="1.0" encoding="UTF-8" standalone="no"?>
<!DOCTYPE svg PUBLIC "-//W3C//DTD SVG 1.1//EN"
 "http://www.w3.org/Graphics/SVG/1.1/DTD/svg11.dtd">
<!-- Generated by graphviz version 2.38.0 (20140413.2041)
 -->
<!-- Title: packages_pyFDA Pages: 1 -->
<svg width="2270pt" height="404pt"
 viewBox="0.00 0.00 2270.00 404.00" xmlns="http://www.w3.org/2000/svg" xmlns:xlink="http://www.w3.org/1999/xlink">
<g id="graph0" class="graph" transform="scale(1 1) rotate(0) translate(4 400)">
<title>packages_pyFDA</title>
<polygon fill="white" stroke="none" points="-4,4 -4,-400 2266,-400 2266,4 -4,4"/>
<!-- 0 -->
<g id="node1" class="node"><title>0</title>
<polygon fill="none" stroke="black" points="492,-36 427,-36 427,-0 492,-0 492,-36"/>
<text text-anchor="middle" x="459.5" y="-14.3" font-family="Times New Roman,serif" font-size="14.00">__init__</text>
</g>
<!-- 1 -->
<g id="node2" class="node"><title>1</title>
<polygon fill="none" stroke="black" points="598.5,-36 510.5,-36 510.5,-0 598.5,-0 598.5,-36"/>
<text text-anchor="middle" x="554.5" y="-14.3" font-family="Times New Roman,serif" font-size="14.00">filter_design</text>
</g>
<!-- 2 -->
<g id="node3" class="node"><title>2</title>
<polygon fill="none" stroke="black" points="742,-36 617,-36 617,-0 742,-0 742,-36"/>
<text text-anchor="middle" x="679.5" y="-14.3" font-family="Times New Roman,serif" font-size="14.00">filter_design.bessel</text>
</g>
<!-- 3 -->
<g id="node4" class="node"><title>3</title>
<polygon fill="none" stroke="black" points="885,-36 760,-36 760,-0 885,-0 885,-36"/>
<text text-anchor="middle" x="822.5" y="-14.3" font-family="Times New Roman,serif" font-size="14.00">filter_design.butter</text>
</g>
<!-- 4 -->
<g id="node5" class="node"><title>4</title>
<polygon fill="none" stroke="black" points="1037.5,-36 903.5,-36 903.5,-0 1037.5,-0 1037.5,-36"/>
<text text-anchor="middle" x="970.5" y="-14.3" font-family="Times New Roman,serif" font-size="14.00">filter_design.cheby1</text>
</g>
<!-- 5 -->
<g id="node6" class="node"><title>5</title>
<polygon fill="none" stroke="black" points="1189.5,-36 1055.5,-36 1055.5,-0 1189.5,-0 1189.5,-36"/>
<text text-anchor="middle" x="1122.5" y="-14.3" font-family="Times New Roman,serif" font-size="14.00">filter_design.cheby2</text>
</g>
<!-- 6 -->
<g id="node7" class="node"><title>6</title>
<polygon fill="none" stroke="black" points="1323.5,-36 1207.5,-36 1207.5,-0 1323.5,-0 1323.5,-36"/>
<text text-anchor="middle" x="1265.5" y="-14.3" font-family="Times New Roman,serif" font-size="14.00">filter_design.ellip</text>
</g>
<!-- 7 -->
<g id="node8" class="node"><title>7</title>
<polygon fill="none" stroke="black" points="1491,-36 1342,-36 1342,-0 1491,-0 1491,-36"/>
<text text-anchor="middle" x="1416.5" y="-14.3" font-family="Times New Roman,serif" font-size="14.00">filter_design.equiripple</text>
</g>
<!-- 8 -->
<g id="node9" class="node"><title>8</title>
<polygon fill="none" stroke="black" points="1635.5,-36 1509.5,-36 1509.5,-0 1635.5,-0 1635.5,-36"/>
<text text-anchor="middle" x="1572.5" y="-14.3" font-family="Times New Roman,serif" font-size="14.00">filter_design.firwin</text>
</g>
<!-- 9 -->
<g id="node10" class="node"><title>9</title>
<polygon fill="none" stroke="black" points="1137,-324 1018,-324 1018,-288 1137,-288 1137,-324"/>
<text text-anchor="middle" x="1077.5" y="-302.3" font-family="Times New Roman,serif" font-size="14.00">filter_tree_builder</text>
</g>
<!-- 10 -->
<g id="node11" class="node"><title>10</title>
<polygon fill="none" stroke="black" points="1029.5,-396 949.5,-396 949.5,-360 1029.5,-360 1029.5,-396"/>
<text text-anchor="middle" x="989.5" y="-374.3" font-family="Times New Roman,serif" font-size="14.00">filterbroker</text>
</g>
<!-- 9&#45;&gt;10 -->
<g id="edge1" class="edge"><title>9&#45;&gt;10</title>
<path fill="none" stroke="black" d="M1055.75,-324.303C1044.66,-333.119 1031.03,-343.968 1019.01,-353.526"/>
<polygon fill="black" stroke="black" points="1011,-359.896 1016.03,-350.149 1014.92,-356.783 1018.83,-353.67 1018.83,-353.67 1018.83,-353.67 1014.92,-356.783 1021.63,-357.192 1011,-359.896 1011,-359.896"/>
</g>
<!-- 11 -->
<g id="node12" class="node"><title>11</title>
<polygon fill="none" stroke="black" points="1677.5,-252 1579.5,-252 1579.5,-216 1677.5,-216 1677.5,-252"/>
<text text-anchor="middle" x="1628.5" y="-230.3" font-family="Times New Roman,serif" font-size="14.00">input_widgets</text>
</g>
<!-- 12 -->
<g id="node13" class="node"><title>12</title>
<polygon fill="none" stroke="black" points="701,-108 548,-108 548,-72 701,-72 701,-108"/>
<text text-anchor="middle" x="624.5" y="-86.3" font-family="Times New Roman,serif" font-size="14.00">input_widgets.input_all</text>
</g>
<!-- 12&#45;&gt;11 -->
<g id="edge2" class="edge"><title>12&#45;&gt;11</title>
<path fill="none" stroke="black" d="M701.272,-96.7743C861.664,-109.781 1243.7,-145.696 1569.16,-215.864"/>
<polygon fill="black" stroke="black" points="1579.26,-218.056 1568.53,-220.332 1574.37,-216.995 1569.49,-215.934 1569.49,-215.934 1569.49,-215.934 1574.37,-216.995 1570.44,-211.537 1579.26,-218.056 1579.26,-218.056"/>
</g>
<!-- 14 -->
<g id="node15" class="node"><title>14</title>
<polygon fill="none" stroke="black" points="525,-180 352,-180 352,-144 525,-144 525,-180"/>
<text text-anchor="middle" x="438.5" y="-158.3" font-family="Times New Roman,serif" font-size="14.00">input_widgets.input_coeffs</text>
</g>
<!-- 12&#45;&gt;14 -->
<g id="edge3" class="edge"><title>12&#45;&gt;14</title>
<path fill="none" stroke="black" d="M578.999,-108.124C553.12,-117.863 520.533,-130.128 493.259,-140.392"/>
<polygon fill="black" stroke="black" points="483.853,-143.932 491.627,-136.198 488.533,-142.171 493.212,-140.409 493.212,-140.409 493.212,-140.409 488.533,-142.171 494.797,-144.621 483.853,-143.932 483.853,-143.932"/>
</g>
<!-- 15 -->
<g id="node16" class="node"><title>15</title>
<polygon fill="none" stroke="black" points="706,-180 543,-180 543,-144 706,-144 706,-180"/>
<text text-anchor="middle" x="624.5" y="-158.3" font-family="Times New Roman,serif" font-size="14.00">input_widgets.input_files</text>
</g>
<!-- 12&#45;&gt;15 -->
<g id="edge4" class="edge"><title>12&#45;&gt;15</title>
<path fill="none" stroke="black" d="M624.5,-108.303C624.5,-116.017 624.5,-125.288 624.5,-133.888"/>
<polygon fill="black" stroke="black" points="624.5,-143.896 620,-133.896 624.5,-138.896 624.5,-133.896 624.5,-133.896 624.5,-133.896 624.5,-138.896 629,-133.896 624.5,-143.896 624.5,-143.896"/>
</g>
<!-- 18 -->
<g id="node19" class="node"><title>18</title>
<polygon fill="none" stroke="black" points="163,-180 0,-180 0,-144 163,-144 163,-180"/>
<text text-anchor="middle" x="81.5" y="-158.3" font-family="Times New Roman,serif" font-size="14.00">input_widgets.input_info</text>
</g>
<!-- 12&#45;&gt;18 -->
<g id="edge5" class="edge"><title>12&#45;&gt;18</title>
<path fill="none" stroke="black" d="M547.912,-98.3777C459.951,-107.213 311.107,-123.267 173.216,-143.949"/>
<polygon fill="black" stroke="black" points="163.308,-145.446 172.523,-139.502 168.252,-144.699 173.196,-143.952 173.196,-143.952 173.196,-143.952 168.252,-144.699 173.868,-148.401 163.308,-145.446 163.308,-145.446"/>
</g>
<!-- 20 -->
<g id="node21" class="node"><title>20</title>
<polygon fill="none" stroke="black" points="334,-180 181,-180 181,-144 334,-144 334,-180"/>
<text text-anchor="middle" x="257.5" y="-158.3" font-family="Times New Roman,serif" font-size="14.00">input_widgets.input_pz</text>
</g>
<!-- 12&#45;&gt;20 -->
<g id="edge6" class="edge"><title>12&#45;&gt;20</title>
<path fill="none" stroke="black" d="M547.838,-105.273C493.754,-115.385 419.32,-129.39 344.47,-143.821"/>
<polygon fill="black" stroke="black" points="334.388,-145.767 343.353,-139.453 339.297,-144.819 344.206,-143.872 344.206,-143.872 344.206,-143.872 339.297,-144.819 345.059,-148.29 334.388,-145.767 334.388,-145.767"/>
</g>
<!-- 21 -->
<g id="node22" class="node"><title>21</title>
<polygon fill="none" stroke="black" points="1066.5,-180 896.5,-180 896.5,-144 1066.5,-144 1066.5,-180"/>
<text text-anchor="middle" x="981.5" y="-158.3" font-family="Times New Roman,serif" font-size="14.00">input_widgets.input_specs</text>
</g>
<!-- 12&#45;&gt;21 -->
<g id="edge7" class="edge"><title>12&#45;&gt;21</title>
<path fill="none" stroke="black" d="M701.085,-106.017C755.315,-116.65 828.417,-130.984 886.385,-142.35"/>
<polygon fill="black" stroke="black" points="896.287,-144.292 885.608,-146.783 891.381,-143.33 886.474,-142.367 886.474,-142.367 886.474,-142.367 891.381,-143.33 887.34,-137.951 896.287,-144.292 896.287,-144.292"/>
</g>
<!-- 13 -->
<g id="node14" class="node"><title>13</title>
<polygon fill="none" stroke="black" points="1561.5,-252 1359.5,-252 1359.5,-216 1561.5,-216 1561.5,-252"/>
<text text-anchor="middle" x="1460.5" y="-230.3" font-family="Times New Roman,serif" font-size="14.00">input_widgets.input_amp_specs</text>
</g>
<!-- 13&#45;&gt;10 -->
<g id="edge8" class="edge"><title>13&#45;&gt;10</title>
<path fill="none" stroke="black" d="M1359.45,-251.571C1287.29,-263.885 1200.29,-279.898 1184.5,-288 1163.8,-298.62 1166.43,-312 1146.5,-324 1113.36,-343.951 1071.73,-357.565 1039.66,-365.995"/>
<polygon fill="black" stroke="black" points="1029.61,-368.551 1038.19,-361.725 1034.46,-367.319 1039.3,-366.086 1039.3,-366.086 1039.3,-366.086 1034.46,-367.319 1040.41,-370.448 1029.61,-368.551 1029.61,-368.551"/>
</g>
<!-- 14&#45;&gt;10 -->
<g id="edge9" class="edge"><title>14&#45;&gt;10</title>
<path fill="none" stroke="black" d="M361.107,-180.121C342.816,-187.97 325.463,-199.392 314.5,-216 305.686,-229.353 305.058,-239.083 314.5,-252 388.343,-353.026 795.234,-372.42 939.092,-376.128"/>
<polygon fill="black" stroke="black" points="949.389,-376.378 939.283,-380.634 944.39,-376.257 939.392,-376.135 939.392,-376.135 939.392,-376.135 944.39,-376.257 939.501,-371.637 949.389,-376.378 949.389,-376.378"/>
</g>
<!-- 33 -->
<g id="node34" class="node"><title>33</title>
<polygon fill="none" stroke="black" points="441.5,-252 323.5,-252 323.5,-216 441.5,-216 441.5,-252"/>
<text text-anchor="middle" x="382.5" y="-230.3" font-family="Times New Roman,serif" font-size="14.00">pyfda_lib_fix_v3</text>
</g>
<!-- 14&#45;&gt;33 -->
<g id="edge10" class="edge"><title>14&#45;&gt;33</title>
<path fill="none" stroke="black" d="M424.657,-180.303C418.011,-188.611 409.922,-198.723 402.613,-207.859"/>
<polygon fill="black" stroke="black" points="396.183,-215.896 398.917,-205.276 399.307,-211.991 402.43,-208.087 402.43,-208.087 402.43,-208.087 399.307,-211.991 405.944,-210.898 396.183,-215.896 396.183,-215.896"/>
</g>
<!-- 15&#45;&gt;10 -->
<g id="edge11" class="edge"><title>15&#45;&gt;10</title>
<path fill="none" stroke="black" d="M542.987,-177.335C521.771,-185.167 501.299,-197.276 488.5,-216 479.471,-229.209 478.852,-239.236 488.5,-252 543.074,-324.194 823.206,-360.265 939.156,-372.285"/>
<polygon fill="black" stroke="black" points="949.195,-373.308 938.79,-376.771 944.22,-372.801 939.246,-372.295 939.246,-372.295 939.246,-372.295 944.22,-372.801 939.702,-367.818 949.195,-373.308 949.195,-373.308"/>
</g>
<!-- 15&#45;&gt;33 -->
<g id="edge12" class="edge"><title>15&#45;&gt;33</title>
<path fill="none" stroke="black" d="M565.61,-180.034C531.209,-189.985 487.619,-202.594 451.599,-213.013"/>
<polygon fill="black" stroke="black" points="441.654,-215.889 450.01,-208.788 446.458,-214.5 451.261,-213.11 451.261,-213.11 451.261,-213.11 446.458,-214.5 452.511,-217.433 441.654,-215.889 441.654,-215.889"/>
</g>
<!-- 16 -->
<g id="node17" class="node"><title>16</title>
<polygon fill="none" stroke="black" points="1341.5,-252 1175.5,-252 1175.5,-216 1341.5,-216 1341.5,-252"/>
<text text-anchor="middle" x="1258.5" y="-230.3" font-family="Times New Roman,serif" font-size="14.00">input_widgets.input_filter</text>
</g>
<!-- 16&#45;&gt;9 -->
<g id="edge13" class="edge"><title>16&#45;&gt;9</title>
<path fill="none" stroke="black" d="M1214.22,-252.124C1189.15,-261.821 1157.6,-274.02 1131.13,-284.257"/>
<polygon fill="black" stroke="black" points="1121.63,-287.932 1129.34,-280.128 1126.3,-286.128 1130.96,-284.325 1130.96,-284.325 1130.96,-284.325 1126.3,-286.128 1132.58,-288.522 1121.63,-287.932 1121.63,-287.932"/>
</g>
<!-- 16&#45;&gt;10 -->
<g id="edge14" class="edge"><title>16&#45;&gt;10</title>
<path fill="none" stroke="black" d="M1175.31,-250.493C1105.3,-263.878 1015.58,-281.989 1009.5,-288 993.442,-303.877 989.068,-329.68 988.343,-349.425"/>
<polygon fill="black" stroke="black" points="988.265,-359.67 983.842,-349.636 988.303,-354.67 988.342,-349.67 988.342,-349.67 988.342,-349.67 988.303,-354.67 992.841,-349.704 988.265,-359.67 988.265,-359.67"/>
</g>
<!-- 17 -->
<g id="node18" class="node"><title>17</title>
<polygon fill="none" stroke="black" points="697.5,-252 497.5,-252 497.5,-216 697.5,-216 697.5,-252"/>
<text text-anchor="middle" x="597.5" y="-230.3" font-family="Times New Roman,serif" font-size="14.00">input_widgets.input_freq_specs</text>
</g>
<!-- 17&#45;&gt;10 -->
<g id="edge15" class="edge"><title>17&#45;&gt;10</title>
<path fill="none" stroke="black" d="M644.784,-252.129C719.327,-279.131 863.491,-331.354 939.616,-358.93"/>
<polygon fill="black" stroke="black" points="949.446,-362.491 938.511,-363.316 944.745,-360.788 940.044,-359.085 940.044,-359.085 940.044,-359.085 944.745,-360.788 941.577,-354.854 949.446,-362.491 949.446,-362.491"/>
</g>
<!-- 18&#45;&gt;10 -->
<g id="edge16" class="edge"><title>18&#45;&gt;10</title>
<path fill="none" stroke="black" d="M98.7521,-180.07C134.802,-214.503 222.282,-291.74 312.5,-324 427.86,-365.25 802.127,-374.455 938.875,-376.458"/>
<polygon fill="black" stroke="black" points="949.07,-376.601 939.009,-380.96 944.071,-376.531 939.071,-376.461 939.071,-376.461 939.071,-376.461 944.071,-376.531 939.134,-371.961 949.07,-376.601 949.07,-376.601"/>
</g>
<!-- 19 -->
<g id="node20" class="node"><title>19</title>
<polygon fill="none" stroke="black" points="885.5,-252 715.5,-252 715.5,-216 885.5,-216 885.5,-252"/>
<text text-anchor="middle" x="800.5" y="-230.3" font-family="Times New Roman,serif" font-size="14.00">input_widgets.input_order</text>
</g>
<!-- 19&#45;&gt;10 -->
<g id="edge17" class="edge"><title>19&#45;&gt;10</title>
<path fill="none" stroke="black" d="M817.473,-252.2C836.502,-271.006 868.737,-301.465 899.5,-324 914.663,-335.107 932.302,-345.909 947.926,-354.832"/>
<polygon fill="black" stroke="black" points="956.859,-359.856 945.937,-358.876 952.501,-357.405 948.143,-354.954 948.143,-354.954 948.143,-354.954 952.501,-357.405 950.349,-351.032 956.859,-359.856 956.859,-359.856"/>
</g>
<!-- 20&#45;&gt;10 -->
<g id="edge18" class="edge"><title>20&#45;&gt;10</title>
<path fill="none" stroke="black" d="M262.116,-180.001C272.56,-214.663 301.635,-292.851 358.5,-324 408.941,-351.63 798.551,-369.503 939.129,-375.108"/>
<polygon fill="black" stroke="black" points="949.206,-375.506 939.036,-379.608 944.209,-375.309 939.213,-375.112 939.213,-375.112 939.213,-375.112 944.209,-375.309 939.391,-370.615 949.206,-375.506 949.206,-375.506"/>
</g>
<!-- 21&#45;&gt;10 -->
<g id="edge19" class="edge"><title>21&#45;&gt;10</title>
<path fill="none" stroke="black" d="M959.347,-180.125C949.09,-189.476 937.981,-201.997 932.5,-216 926.668,-230.899 929.103,-236.365 932.5,-252 940.357,-288.168 959.632,-326.417 973.596,-350.935"/>
<polygon fill="black" stroke="black" points="978.653,-359.627 969.735,-353.247 976.139,-355.305 973.624,-350.983 973.624,-350.983 973.624,-350.983 976.139,-355.305 977.514,-348.72 978.653,-359.627 978.653,-359.627"/>
</g>
<!-- 21&#45;&gt;11 -->
<g id="edge20" class="edge"><title>21&#45;&gt;11</title>
<path fill="none" stroke="black" d="M1066.59,-165.447C1179.72,-169.862 1385.81,-181.943 1569.46,-216.018"/>
<polygon fill="black" stroke="black" points="1579.3,-217.868 1568.64,-220.442 1574.39,-216.944 1569.47,-216.02 1569.47,-216.02 1569.47,-216.02 1574.39,-216.944 1570.3,-211.597 1579.3,-217.868 1579.3,-217.868"/>
</g>
<!-- 21&#45;&gt;13 -->
<g id="edge21" class="edge"><title>21&#45;&gt;13</title>
<path fill="none" stroke="black" d="M1066.54,-174.952C1139.02,-185.199 1246.25,-200.502 1349.26,-215.822"/>
<polygon fill="black" stroke="black" points="1359.21,-217.305 1348.66,-220.282 1354.27,-216.568 1349.32,-215.831 1349.32,-215.831 1349.32,-215.831 1354.27,-216.568 1349.98,-211.381 1359.21,-217.305 1359.21,-217.305"/>
</g>
<!-- 21&#45;&gt;16 -->
<g id="edge22" class="edge"><title>21&#45;&gt;16</title>
<path fill="none" stroke="black" d="M1048.91,-180.034C1088.79,-190.113 1139.46,-202.918 1180.99,-213.412"/>
<polygon fill="black" stroke="black" points="1190.79,-215.889 1179.99,-217.802 1185.94,-214.664 1181.09,-213.439 1181.09,-213.439 1181.09,-213.439 1185.94,-214.664 1182.2,-209.076 1190.79,-215.889 1190.79,-215.889"/>
</g>
<!-- 21&#45;&gt;17 -->
<g id="edge23" class="edge"><title>21&#45;&gt;17</title>
<path fill="none" stroke="black" d="M896.278,-178.535C838.615,-189.047 762.111,-202.993 700.954,-214.141"/>
<polygon fill="black" stroke="black" points="690.888,-215.976 699.919,-209.756 695.807,-215.079 700.726,-214.183 700.726,-214.183 700.726,-214.183 695.807,-215.079 701.533,-218.61 690.888,-215.976 690.888,-215.976"/>
</g>
<!-- 21&#45;&gt;19 -->
<g id="edge24" class="edge"><title>21&#45;&gt;19</title>
<path fill="none" stroke="black" d="M937.222,-180.124C912.149,-189.821 880.604,-202.02 854.135,-212.257"/>
<polygon fill="black" stroke="black" points="844.634,-215.932 852.337,-208.128 849.297,-214.128 853.961,-212.325 853.961,-212.325 853.961,-212.325 849.297,-214.128 855.584,-216.522 844.634,-215.932 844.634,-215.932"/>
</g>
<!-- 22 -->
<g id="node23" class="node"><title>22</title>
<polygon fill="none" stroke="black" points="1157.5,-252 941.5,-252 941.5,-216 1157.5,-216 1157.5,-252"/>
<text text-anchor="middle" x="1049.5" y="-230.3" font-family="Times New Roman,serif" font-size="14.00">input_widgets.input_weight_specs</text>
</g>
<!-- 21&#45;&gt;22 -->
<g id="edge25" class="edge"><title>21&#45;&gt;22</title>
<path fill="none" stroke="black" d="M998.309,-180.303C1006.63,-188.865 1016.81,-199.344 1025.89,-208.696"/>
<polygon fill="black" stroke="black" points="1032.88,-215.896 1022.69,-211.858 1029.4,-212.309 1025.92,-208.723 1025.92,-208.723 1025.92,-208.723 1029.4,-212.309 1029.14,-205.587 1032.88,-215.896 1032.88,-215.896"/>
</g>
<!-- 22&#45;&gt;10 -->
<g id="edge26" class="edge"><title>22&#45;&gt;10</title>
<path fill="none" stroke="black" d="M1012.11,-252.202C997.956,-260.797 983.372,-272.679 975.5,-288 965.548,-307.369 970.561,-331.992 977.205,-350.427"/>
<polygon fill="black" stroke="black" points="980.98,-359.959 973.114,-352.318 979.139,-355.31 977.298,-350.662 977.298,-350.662 977.298,-350.662 979.139,-355.31 981.482,-349.005 980.98,-359.959 980.98,-359.959"/>
</g>
<!-- 23 -->
<g id="node24" class="node"><title>23</title>
<polygon fill="none" stroke="black" points="2262,-324 2171,-324 2171,-288 2262,-288 2262,-324"/>
<text text-anchor="middle" x="2216.5" y="-302.3" font-family="Times New Roman,serif" font-size="14.00">plot_widgets</text>
</g>
<!-- 24 -->
<g id="node25" class="node"><title>24</title>
<polygon fill="none" stroke="black" points="1333.5,-324 1193.5,-324 1193.5,-288 1333.5,-288 1333.5,-324"/>
<text text-anchor="middle" x="1263.5" y="-302.3" font-family="Times New Roman,serif" font-size="14.00">plot_widgets.plot_3d</text>
</g>
<!-- 24&#45;&gt;10 -->
<g id="edge27" class="edge"><title>24&#45;&gt;10</title>
<path fill="none" stroke="black" d="M1196.82,-324.034C1148.33,-336.424 1083.7,-352.935 1039.57,-364.208"/>
<polygon fill="black" stroke="black" points="1029.65,-366.743 1038.23,-359.907 1034.49,-365.505 1039.34,-364.267 1039.34,-364.267 1039.34,-364.267 1034.49,-365.505 1040.45,-368.627 1029.65,-366.743 1029.65,-366.743"/>
</g>
<!-- 31 -->
<g id="node32" class="node"><title>31</title>
<polygon fill="none" stroke="black" points="1741,-396 1592,-396 1592,-360 1741,-360 1741,-396"/>
<text text-anchor="middle" x="1666.5" y="-374.3" font-family="Times New Roman,serif" font-size="14.00">plot_widgets.plot_utils</text>
</g>
<!-- 24&#45;&gt;31 -->
<g id="edge28" class="edge"><title>24&#45;&gt;31</title>
<path fill="none" stroke="black" d="M1333.7,-322.112C1337.01,-322.763 1340.29,-323.396 1343.5,-324 1424.08,-339.163 1516.43,-354.07 1581.68,-364.192"/>
<polygon fill="black" stroke="black" points="1591.92,-365.775 1581.35,-368.694 1586.98,-365.011 1582.04,-364.247 1582.04,-364.247 1582.04,-364.247 1586.98,-365.011 1582.72,-359.799 1591.92,-365.775 1591.92,-365.775"/>
</g>
<!-- 25 -->
<g id="node26" class="node"><title>25</title>
<polygon fill="none" stroke="black" points="1833.5,-252 1695.5,-252 1695.5,-216 1833.5,-216 1833.5,-252"/>
<text text-anchor="middle" x="1764.5" y="-230.3" font-family="Times New Roman,serif" font-size="14.00">plot_widgets.plot_all</text>
</g>
<!-- 25&#45;&gt;23 -->
<g id="edge29" class="edge"><title>25&#45;&gt;23</title>
<path fill="none" stroke="black" d="M1833.8,-240.573C1911.53,-247.642 2041.35,-261.899 2160.93,-287.847"/>
<polygon fill="black" stroke="black" points="2170.99,-290.064 2160.25,-292.307 2166.1,-288.988 2161.22,-287.912 2161.22,-287.912 2161.22,-287.912 2166.1,-288.988 2162.19,-283.517 2170.99,-290.064 2170.99,-290.064"/>
</g>
<!-- 25&#45;&gt;24 -->
<g id="edge30" class="edge"><title>25&#45;&gt;24</title>
<path fill="none" stroke="black" d="M1695.25,-250.506C1692.3,-251.036 1689.37,-251.538 1686.5,-252 1538.42,-275.834 1496.68,-264.549 1343.89,-288.056"/>
<polygon fill="black" stroke="black" points="1333.66,-289.656 1342.85,-283.665 1338.6,-288.883 1343.54,-288.111 1343.54,-288.111 1343.54,-288.111 1338.6,-288.883 1344.24,-292.557 1333.66,-289.656 1333.66,-289.656"/>
</g>
<!-- 26 -->
<g id="node27" class="node"><title>26</title>
<polygon fill="none" stroke="black" points="1489,-324 1352,-324 1352,-288 1489,-288 1489,-324"/>
<text text-anchor="middle" x="1420.5" y="-302.3" font-family="Times New Roman,serif" font-size="14.00">plot_widgets.plot_hf</text>
</g>
<!-- 25&#45;&gt;26 -->
<g id="edge31" class="edge"><title>25&#45;&gt;26</title>
<path fill="none" stroke="black" d="M1695.2,-250.2C1692.26,-250.814 1689.35,-251.416 1686.5,-252 1606.25,-268.427 1583.51,-270.78 1499.39,-287.847"/>
<polygon fill="black" stroke="black" points="1489.38,-289.888 1498.28,-283.48 1494.28,-288.889 1499.18,-287.889 1499.18,-287.889 1499.18,-287.889 1494.28,-288.889 1500.08,-292.299 1489.38,-289.888 1489.38,-289.888"/>
</g>
<!-- 27 -->
<g id="node28" class="node"><title>27</title>
<polygon fill="none" stroke="black" points="1660,-324 1507,-324 1507,-288 1660,-288 1660,-324"/>
<text text-anchor="middle" x="1583.5" y="-302.3" font-family="Times New Roman,serif" font-size="14.00">plot_widgets.plot_impz</text>
</g>
<!-- 25&#45;&gt;27 -->
<g id="edge32" class="edge"><title>25&#45;&gt;27</title>
<path fill="none" stroke="black" d="M1720.22,-252.124C1695.15,-261.821 1663.6,-274.02 1637.13,-284.257"/>
<polygon fill="black" stroke="black" points="1627.63,-287.932 1635.34,-280.128 1632.3,-286.128 1636.96,-284.325 1636.96,-284.325 1636.96,-284.325 1632.3,-286.128 1638.58,-288.522 1627.63,-287.932 1627.63,-287.932"/>
</g>
<!-- 28 -->
<g id="node29" class="node"><title>28</title>
<polygon fill="none" stroke="black" points="1821,-324 1678,-324 1678,-288 1821,-288 1821,-324"/>
<text text-anchor="middle" x="1749.5" y="-302.3" font-family="Times New Roman,serif" font-size="14.00">plot_widgets.plot_phi</text>
</g>
<!-- 25&#45;&gt;28 -->
<g id="edge33" class="edge"><title>25&#45;&gt;28</title>
<path fill="none" stroke="black" d="M1760.79,-252.303C1759.14,-260.017 1757.15,-269.288 1755.31,-277.888"/>
<polygon fill="black" stroke="black" points="1753.17,-287.896 1750.86,-277.175 1754.21,-283.007 1755.26,-278.118 1755.26,-278.118 1755.26,-278.118 1754.21,-283.007 1759.66,-279.061 1753.17,-287.896 1753.17,-287.896"/>
</g>
<!-- 29 -->
<g id="node30" class="node"><title>29</title>
<polygon fill="none" stroke="black" points="1977.5,-324 1839.5,-324 1839.5,-288 1977.5,-288 1977.5,-324"/>
<text text-anchor="middle" x="1908.5" y="-302.3" font-family="Times New Roman,serif" font-size="14.00">plot_widgets.plot_pz</text>
</g>
<!-- 25&#45;&gt;29 -->
<g id="edge34" class="edge"><title>25&#45;&gt;29</title>
<path fill="none" stroke="black" d="M1799.73,-252.124C1819.08,-261.531 1843.27,-273.292 1863.93,-283.333"/>
<polygon fill="black" stroke="black" points="1873.14,-287.81 1862.18,-287.485 1868.64,-285.624 1864.14,-283.438 1864.14,-283.438 1864.14,-283.438 1868.64,-285.624 1866.11,-279.391 1873.14,-287.81 1873.14,-287.81"/>
</g>
<!-- 30 -->
<g id="node31" class="node"><title>30</title>
<polygon fill="none" stroke="black" points="2153,-324 1996,-324 1996,-288 2153,-288 2153,-324"/>
<text text-anchor="middle" x="2074.5" y="-302.3" font-family="Times New Roman,serif" font-size="14.00">plot_widgets.plot_tau_g</text>
</g>
<!-- 25&#45;&gt;30 -->
<g id="edge35" class="edge"><title>25&#45;&gt;30</title>
<path fill="none" stroke="black" d="M1833.68,-250.622C1879.59,-260.989 1940.17,-274.668 1989.08,-285.712"/>
<polygon fill="black" stroke="black" points="1999.02,-287.955 1988.27,-290.142 1994.14,-286.854 1989.26,-285.753 1989.26,-285.753 1989.26,-285.753 1994.14,-286.854 1990.25,-281.363 1999.02,-287.955 1999.02,-287.955"/>
</g>
<!-- 26&#45;&gt;10 -->
<g id="edge36" class="edge"><title>26&#45;&gt;10</title>
<path fill="none" stroke="black" d="M1351.65,-322.263C1348.56,-322.867 1345.5,-323.449 1342.5,-324 1235.1,-343.744 1108.31,-361.417 1039.71,-370.517"/>
<polygon fill="black" stroke="black" points="1029.61,-371.85 1038.94,-366.079 1034.57,-371.195 1039.52,-370.541 1039.52,-370.541 1039.52,-370.541 1034.57,-371.195 1040.11,-375.002 1029.61,-371.85 1029.61,-371.85"/>
</g>
<!-- 26&#45;&gt;31 -->
<g id="edge37" class="edge"><title>26&#45;&gt;31</title>
<path fill="none" stroke="black" d="M1480.36,-324.034C1515.48,-334.028 1560.02,-346.702 1596.73,-357.146"/>
<polygon fill="black" stroke="black" points="1606.37,-359.889 1595.52,-361.48 1601.56,-358.521 1596.75,-357.152 1596.75,-357.152 1596.75,-357.152 1601.56,-358.521 1597.98,-352.824 1606.37,-359.889 1606.37,-359.889"/>
</g>
<!-- 27&#45;&gt;10 -->
<g id="edge38" class="edge"><title>27&#45;&gt;10</title>
<path fill="none" stroke="black" d="M1506.65,-322.706C1503.9,-323.16 1501.18,-323.594 1498.5,-324 1331.24,-349.377 1131.2,-366.325 1039.68,-373.343"/>
<polygon fill="black" stroke="black" points="1029.59,-374.11 1039.22,-368.865 1034.57,-373.731 1039.56,-373.352 1039.56,-373.352 1039.56,-373.352 1034.57,-373.731 1039.9,-377.839 1029.59,-374.11 1029.59,-374.11"/>
</g>
<!-- 27&#45;&gt;31 -->
<g id="edge39" class="edge"><title>27&#45;&gt;31</title>
<path fill="none" stroke="black" d="M1604.02,-324.303C1614.37,-333.035 1627.09,-343.76 1638.34,-353.25"/>
<polygon fill="black" stroke="black" points="1646.22,-359.896 1635.67,-356.889 1642.4,-356.672 1638.57,-353.449 1638.57,-353.449 1638.57,-353.449 1642.4,-356.672 1641.48,-350.009 1646.22,-359.896 1646.22,-359.896"/>
</g>
<!-- 28&#45;&gt;10 -->
<g id="edge40" class="edge"><title>28&#45;&gt;10</title>
<path fill="none" stroke="black" d="M1677.62,-322.74C1674.88,-323.192 1672.17,-323.614 1669.5,-324 1435.39,-357.848 1152.58,-371.143 1039.63,-375.351"/>
<polygon fill="black" stroke="black" points="1029.56,-375.719 1039.39,-370.857 1034.56,-375.536 1039.55,-375.354 1039.55,-375.354 1039.55,-375.354 1034.56,-375.536 1039.72,-379.851 1029.56,-375.719 1029.56,-375.719"/>
</g>
<!-- 28&#45;&gt;31 -->
<g id="edge41" class="edge"><title>28&#45;&gt;31</title>
<path fill="none" stroke="black" d="M1728.98,-324.303C1718.63,-333.035 1705.91,-343.76 1694.66,-353.25"/>
<polygon fill="black" stroke="black" points="1686.78,-359.896 1691.52,-350.009 1690.6,-356.672 1694.43,-353.449 1694.43,-353.449 1694.43,-353.449 1690.6,-356.672 1697.33,-356.889 1686.78,-359.896 1686.78,-359.896"/>
</g>
<!-- 29&#45;&gt;10 -->
<g id="edge42" class="edge"><title>29&#45;&gt;10</title>
<path fill="none" stroke="black" d="M1839.28,-322.658C1836.32,-323.146 1833.38,-323.597 1830.5,-324 1532.49,-365.621 1170.47,-374.574 1039.66,-376.486"/>
<polygon fill="black" stroke="black" points="1029.55,-376.626 1039.49,-371.988 1034.55,-376.557 1039.55,-376.488 1039.55,-376.488 1039.55,-376.488 1034.55,-376.557 1039.61,-380.987 1029.55,-376.626 1029.55,-376.626"/>
</g>
<!-- 29&#45;&gt;31 -->
<g id="edge43" class="edge"><title>29&#45;&gt;31</title>
<path fill="none" stroke="black" d="M1849.61,-324.034C1815.21,-333.985 1771.62,-346.594 1735.6,-357.013"/>
<polygon fill="black" stroke="black" points="1725.65,-359.889 1734.01,-352.788 1730.46,-358.5 1735.26,-357.11 1735.26,-357.11 1735.26,-357.11 1730.46,-358.5 1736.51,-361.433 1725.65,-359.889 1725.65,-359.889"/>
</g>
<!-- 30&#45;&gt;10 -->
<g id="edge44" class="edge"><title>30&#45;&gt;10</title>
<path fill="none" stroke="black" d="M1995.9,-322.74C1992.73,-323.198 1989.59,-323.621 1986.5,-324 1625.27,-368.279 1185.93,-375.577 1039.59,-376.77"/>
<polygon fill="black" stroke="black" points="1029.56,-376.846 1039.53,-372.271 1034.56,-376.808 1039.56,-376.77 1039.56,-376.77 1039.56,-376.77 1034.56,-376.808 1039.6,-381.27 1029.56,-376.846 1029.56,-376.846"/>
</g>
<!-- 30&#45;&gt;31 -->
<g id="edge45" class="edge"><title>30&#45;&gt;31</title>
<path fill="none" stroke="black" d="M1995.84,-322.304C1992.68,-322.883 1989.56,-323.451 1986.5,-324 1906.92,-338.274 1815.96,-353.207 1751.4,-363.571"/>
<polygon fill="black" stroke="black" points="1741.28,-365.194 1750.44,-359.168 1746.21,-364.403 1751.15,-363.611 1751.15,-363.611 1751.15,-363.611 1746.21,-364.403 1751.86,-368.054 1741.28,-365.194 1741.28,-365.194"/>
</g>
<!-- 32 -->
<g id="node33" class="node"><title>32</title>
<polygon fill="none" stroke="black" points="1715,-36 1654,-36 1654,-0 1715,-0 1715,-36"/>
<text text-anchor="middle" x="1684.5" y="-14.3" font-family="Times New Roman,serif" font-size="14.00">pyFDA</text>
</g>
<!-- 32&#45;&gt;11 -->
<g id="edge46" class="edge"><title>32&#45;&gt;11</title>
<path fill="none" stroke="black" d="M1680.01,-36.1508C1670.3,-73.2465 1647.29,-161.19 1635.59,-205.897"/>
<polygon fill="black" stroke="black" points="1633.01,-215.768 1631.19,-204.954 1634.28,-210.93 1635.54,-206.093 1635.54,-206.093 1635.54,-206.093 1634.28,-210.93 1639.89,-207.233 1633.01,-215.768 1633.01,-215.768"/>
</g>
<!-- 32&#45;&gt;12 -->
<g id="edge47" class="edge"><title>32&#45;&gt;12</title>
<path fill="none" stroke="black" d="M1653.85,-33.2829C1650.74,-34.3505 1647.59,-35.2871 1644.5,-36 1468.13,-76.7177 924.362,-86.199 711.353,-88.3692"/>
<polygon fill="black" stroke="black" points="701.157,-88.4701 711.112,-83.8713 706.157,-88.4206 711.157,-88.3711 711.157,-88.3711 711.157,-88.3711 706.157,-88.4206 711.201,-92.8709 701.157,-88.4701 701.157,-88.4701"/>
</g>
<!-- 32&#45;&gt;23 -->
<g id="edge48" class="edge"><title>32&#45;&gt;23</title>
<path fill="none" stroke="black" d="M1715.01,-35.4038C1805.67,-84.1404 2073.45,-228.098 2175.95,-283.203"/>
<polygon fill="black" stroke="black" points="2184.77,-287.945 2173.84,-287.173 2180.37,-285.577 2175.97,-283.21 2175.97,-283.21 2175.97,-283.21 2180.37,-285.577 2178.1,-279.246 2184.77,-287.945 2184.77,-287.945"/>
</g>
<!-- 32&#45;&gt;25 -->
<g id="edge49" class="edge"><title>32&#45;&gt;25</title>
<path fill="none" stroke="black" d="M1690.91,-36.1508C1704.81,-73.3248 1737.79,-161.561 1754.47,-206.18"/>
<polygon fill="black" stroke="black" points="1758.06,-215.768 1750.34,-207.976 1756.31,-211.084 1754.56,-206.401 1754.56,-206.401 1754.56,-206.401 1756.31,-211.084 1758.77,-204.825 1758.06,-215.768 1758.06,-215.768"/>
</g>
</g>
</svg>
