<?xml version="1.0" encoding="UTF-8" standalone="no"?>
<!DOCTYPE svg PUBLIC "-//W3C//DTD SVG 1.1//EN"
 "http://www.w3.org/Graphics/SVG/1.1/DTD/svg11.dtd">
<!-- Generated by graphviz version 2.38.0 (20140413.2041)
 -->
<!-- Title: classes_pyFDA Pages: 1 -->
<svg width="1807pt" height="397pt"
 viewBox="0.00 0.00 1806.50 397.00" xmlns="http://www.w3.org/2000/svg" xmlns:xlink="http://www.w3.org/1999/xlink">
<g id="graph0" class="graph" transform="scale(1 1) rotate(0) translate(4 393)">
<title>classes_pyFDA</title>
<polygon fill="white" stroke="none" points="-4,4 -4,-393 1802.5,-393 1802.5,4 -4,4"/>
<!-- 0 -->
<g id="node1" class="node"><title>0</title>
<polygon fill="none" stroke="black" points="1076,-0.5 1076,-36.5 1191,-36.5 1191,-0.5 1076,-0.5"/>
<text text-anchor="middle" x="1133.5" y="-14.8" font-family="Times New Roman,serif" font-size="14.00">FilterTreeBuilder</text>
</g>
<!-- 21 -->
<g id="node22" class="node"><title>21</title>
<polygon fill="none" stroke="black" points="1093.5,-88.5 1093.5,-124.5 1173.5,-124.5 1173.5,-88.5 1093.5,-88.5"/>
<text text-anchor="middle" x="1133.5" y="-102.8" font-family="Times New Roman,serif" font-size="14.00">SelectFilter</text>
</g>
<!-- 0&#45;&gt;21 -->
<g id="edge1" class="edge"><title>0&#45;&gt;21</title>
<path fill="none" stroke="black" d="M1133.5,-36.9034C1133.5,-48.1675 1133.5,-63.116 1133.5,-76.1827"/>
<polygon fill="black" stroke="black" points="1133.5,-76.416 1137.5,-82.416 1133.5,-88.416 1129.5,-82.416 1133.5,-76.416"/>
<text text-anchor="middle" x="1141.5" y="-58.8" font-family="Times New Roman,serif" font-size="14.00" fill="green">ftb</text>
</g>
<!-- 1 -->
<g id="node2" class="node"><title>1</title>
<polygon fill="none" stroke="black" points="1209.5,-0.5 1209.5,-36.5 1263.5,-36.5 1263.5,-0.5 1209.5,-0.5"/>
<text text-anchor="middle" x="1236.5" y="-14.8" font-family="Times New Roman,serif" font-size="14.00">Fixed</text>
</g>
<!-- 2 -->
<g id="node3" class="node"><title>2</title>
<polygon fill="none" stroke="black" points="640,-264.5 640,-300.5 705,-300.5 705,-264.5 640,-264.5"/>
<text text-anchor="middle" x="672.5" y="-278.8" font-family="Times New Roman,serif" font-size="14.00">InputAll</text>
</g>
<!-- 29 -->
<g id="node30" class="node"><title>29</title>
<polygon fill="none" stroke="black" points="487,-352.5 487,-388.5 548,-388.5 548,-352.5 487,-352.5"/>
<text text-anchor="middle" x="517.5" y="-366.8" font-family="Times New Roman,serif" font-size="14.00">pyFDA</text>
</g>
<!-- 2&#45;&gt;29 -->
<g id="edge2" class="edge"><title>2&#45;&gt;29</title>
<path fill="none" stroke="black" d="M641.506,-300.697C617.774,-313.864 584.81,-332.154 558.833,-346.567"/>
<polygon fill="black" stroke="black" points="558.669,-346.658 555.363,-353.067 548.176,-352.48 551.482,-346.071 558.669,-346.658"/>
<text text-anchor="middle" x="629" y="-322.8" font-family="Times New Roman,serif" font-size="14.00" fill="green">inputAll</text>
</g>
<!-- 3 -->
<g id="node4" class="node"><title>3</title>
<polygon fill="none" stroke="black" points="601.5,-88.5 601.5,-124.5 711.5,-124.5 711.5,-88.5 601.5,-88.5"/>
<text text-anchor="middle" x="656.5" y="-102.8" font-family="Times New Roman,serif" font-size="14.00">InputAmpSpecs</text>
</g>
<!-- 10 -->
<g id="node11" class="node"><title>10</title>
<polygon fill="none" stroke="black" points="855.5,-176.5 855.5,-212.5 935.5,-212.5 935.5,-176.5 855.5,-176.5"/>
<text text-anchor="middle" x="895.5" y="-190.8" font-family="Times New Roman,serif" font-size="14.00">InputSpecs</text>
</g>
<!-- 3&#45;&gt;10 -->
<g id="edge3" class="edge"><title>3&#45;&gt;10</title>
<path fill="none" stroke="black" d="M701.408,-124.537C727.857,-134.48 762.004,-147.162 792.5,-158 812.919,-165.257 820.135,-167.376 843.742,-175.427"/>
<polygon fill="black" stroke="black" points="844.044,-175.531 851.018,-173.695 855.394,-179.426 848.421,-181.262 844.044,-175.531"/>
<text text-anchor="middle" x="811" y="-146.8" font-family="Times New Roman,serif" font-size="14.00" fill="green">aspecs</text>
</g>
<!-- 4 -->
<g id="node5" class="node"><title>4</title>
<polygon fill="none" stroke="black" points="487,-176.5 487,-212.5 572,-212.5 572,-176.5 487,-176.5"/>
<text text-anchor="middle" x="529.5" y="-190.8" font-family="Times New Roman,serif" font-size="14.00">InputCoeffs</text>
</g>
<!-- 4&#45;&gt;2 -->
<g id="edge4" class="edge"><title>4&#45;&gt;2</title>
<path fill="none" stroke="black" d="M536.638,-212.697C541.996,-223.657 550.329,-237.37 561.5,-246 580.595,-260.751 605.988,-269.463 627.667,-274.561"/>
<polygon fill="black" stroke="black" points="627.858,-274.601 634.559,-271.938 639.595,-277.1 632.894,-279.763 627.858,-274.601"/>
<text text-anchor="middle" x="595.5" y="-234.8" font-family="Times New Roman,serif" font-size="14.00" fill="green">inputCoeffs</text>
</g>
<!-- 5 -->
<g id="node6" class="node"><title>5</title>
<polygon fill="none" stroke="black" points="590.5,-176.5 590.5,-212.5 664.5,-212.5 664.5,-176.5 590.5,-176.5"/>
<text text-anchor="middle" x="627.5" y="-190.8" font-family="Times New Roman,serif" font-size="14.00">InputFiles</text>
</g>
<!-- 5&#45;&gt;2 -->
<g id="edge5" class="edge"><title>5&#45;&gt;2</title>
<path fill="none" stroke="black" d="M628.888,-212.675C630.268,-222.841 633.019,-235.703 638.5,-246 640.154,-249.107 642.158,-252.135 644.356,-255.028"/>
<polygon fill="black" stroke="black" points="644.497,-255.191 651.448,-257.111 652.35,-264.265 645.399,-262.346 644.497,-255.191"/>
<text text-anchor="middle" x="667.5" y="-234.8" font-family="Times New Roman,serif" font-size="14.00" fill="green">inputFiles</text>
</g>
<!-- 6 -->
<g id="node7" class="node"><title>6</title>
<polygon fill="none" stroke="black" points="730,-88.5 730,-124.5 837,-124.5 837,-88.5 730,-88.5"/>
<text text-anchor="middle" x="783.5" y="-102.8" font-family="Times New Roman,serif" font-size="14.00">InputFreqSpecs</text>
</g>
<!-- 6&#45;&gt;10 -->
<g id="edge6" class="edge"><title>6&#45;&gt;10</title>
<path fill="none" stroke="black" d="M805.896,-124.697C822.378,-137.352 845.022,-154.74 863.423,-168.87"/>
<polygon fill="black" stroke="black" points="863.625,-169.025 870.82,-169.506 873.143,-176.333 865.948,-175.852 863.625,-169.025"/>
<text text-anchor="middle" x="864" y="-146.8" font-family="Times New Roman,serif" font-size="14.00" fill="green">fspecs</text>
</g>
<!-- 7 -->
<g id="node8" class="node"><title>7</title>
<polygon fill="none" stroke="black" points="683,-176.5 683,-212.5 754,-212.5 754,-176.5 683,-176.5"/>
<text text-anchor="middle" x="718.5" y="-190.8" font-family="Times New Roman,serif" font-size="14.00">InputInfo</text>
</g>
<!-- 7&#45;&gt;2 -->
<g id="edge7" class="edge"><title>7&#45;&gt;2</title>
<path fill="none" stroke="black" d="M711.923,-212.705C707.897,-222.648 702.397,-235.273 696.5,-246 695.026,-248.681 693.406,-251.417 691.726,-254.121"/>
<polygon fill="black" stroke="black" points="691.695,-254.167 691.755,-261.378 685.121,-264.206 685.062,-256.995 691.695,-254.167"/>
<text text-anchor="middle" x="732" y="-234.8" font-family="Times New Roman,serif" font-size="14.00" fill="green">inputInfo</text>
</g>
<!-- 8 -->
<g id="node9" class="node"><title>8</title>
<polygon fill="none" stroke="black" points="855.5,-88.5 855.5,-124.5 935.5,-124.5 935.5,-88.5 855.5,-88.5"/>
<text text-anchor="middle" x="895.5" y="-102.8" font-family="Times New Roman,serif" font-size="14.00">InputOrder</text>
</g>
<!-- 8&#45;&gt;10 -->
<g id="edge8" class="edge"><title>8&#45;&gt;10</title>
<path fill="none" stroke="black" d="M895.5,-124.903C895.5,-136.167 895.5,-151.116 895.5,-164.183"/>
<polygon fill="black" stroke="black" points="895.5,-164.416 899.5,-170.416 895.5,-176.416 891.5,-170.416 895.5,-164.416"/>
<text text-anchor="middle" x="902" y="-146.8" font-family="Times New Roman,serif" font-size="14.00" fill="green">fo</text>
</g>
<!-- 9 -->
<g id="node10" class="node"><title>9</title>
<polygon fill="none" stroke="black" points="772,-176.5 772,-212.5 837,-212.5 837,-176.5 772,-176.5"/>
<text text-anchor="middle" x="804.5" y="-190.8" font-family="Times New Roman,serif" font-size="14.00">InputPZ</text>
</g>
<!-- 9&#45;&gt;2 -->
<g id="edge9" class="edge"><title>9&#45;&gt;2</title>
<path fill="none" stroke="black" d="M793.769,-212.898C786.385,-223.662 775.724,-237.08 763.5,-246 749.637,-256.117 732.513,-263.783 716.873,-269.354"/>
<polygon fill="black" stroke="black" points="716.666,-269.423 712.237,-275.113 705.281,-273.213 709.71,-267.523 716.666,-269.423"/>
<text text-anchor="middle" x="803.5" y="-234.8" font-family="Times New Roman,serif" font-size="14.00" fill="green">inputPZ</text>
</g>
<!-- 10&#45;&gt;2 -->
<g id="edge10" class="edge"><title>10&#45;&gt;2</title>
<path fill="none" stroke="black" d="M878.221,-212.694C866.109,-223.796 849.012,-237.673 831.5,-246 795.147,-263.286 750.073,-272.324 717.21,-276.942"/>
<polygon fill="black" stroke="black" points="717.155,-276.949 711.724,-281.693 705.256,-278.503 710.688,-273.76 717.155,-276.949"/>
<text text-anchor="middle" x="886.5" y="-234.8" font-family="Times New Roman,serif" font-size="14.00" fill="green">inputSpecs</text>
</g>
<!-- 11 -->
<g id="node12" class="node"><title>11</title>
<polygon fill="none" stroke="black" points="953.5,-88.5 953.5,-124.5 1075.5,-124.5 1075.5,-88.5 953.5,-88.5"/>
<text text-anchor="middle" x="1014.5" y="-102.8" font-family="Times New Roman,serif" font-size="14.00">InputWeightSpecs</text>
</g>
<!-- 11&#45;&gt;10 -->
<g id="edge11" class="edge"><title>11&#45;&gt;10</title>
<path fill="none" stroke="black" d="M990.705,-124.697C973.03,-137.47 948.686,-155.063 929.04,-169.261"/>
<polygon fill="black" stroke="black" points="928.98,-169.304 926.46,-176.061 919.254,-176.333 921.774,-169.577 928.98,-169.304"/>
<text text-anchor="middle" x="983" y="-146.8" font-family="Times New Roman,serif" font-size="14.00" fill="green">wspecs</text>
</g>
<!-- 12 -->
<g id="node13" class="node"><title>12</title>
<polygon fill="none" stroke="black" points="199,-88.5 199,-124.5 282,-124.5 282,-88.5 199,-88.5"/>
<text text-anchor="middle" x="240.5" y="-102.8" font-family="Times New Roman,serif" font-size="14.00">MplWidget</text>
</g>
<!-- 14 -->
<g id="node15" class="node"><title>14</title>
<polygon fill="none" stroke="black" points="170.5,-176.5 170.5,-212.5 228.5,-212.5 228.5,-176.5 170.5,-176.5"/>
<text text-anchor="middle" x="199.5" y="-190.8" font-family="Times New Roman,serif" font-size="14.00">Plot3D</text>
</g>
<!-- 12&#45;&gt;14 -->
<g id="edge12" class="edge"><title>12&#45;&gt;14</title>
<path fill="none" stroke="black" d="M209.742,-124.879C203.596,-129.884 197.97,-135.938 194.5,-143 191.303,-149.505 190.678,-157.044 191.3,-164.281"/>
<polygon fill="black" stroke="black" points="191.336,-164.489 196.303,-169.717 193.387,-176.312 188.421,-171.084 191.336,-164.489"/>
<text text-anchor="middle" x="225.5" y="-146.8" font-family="Times New Roman,serif" font-size="14.00" fill="green">mplwidget</text>
</g>
<!-- 16 -->
<g id="node17" class="node"><title>16</title>
<polygon fill="none" stroke="black" points="252,-176.5 252,-212.5 307,-212.5 307,-176.5 252,-176.5"/>
<text text-anchor="middle" x="279.5" y="-190.8" font-family="Times New Roman,serif" font-size="14.00">PlotHf</text>
</g>
<!-- 12&#45;&gt;16 -->
<g id="edge13" class="edge"><title>12&#45;&gt;16</title>
<path fill="none" stroke="black" d="M250.808,-124.555C254.099,-130.315 257.629,-136.846 260.5,-143 263.747,-149.961 266.863,-157.644 269.6,-164.872"/>
<polygon fill="black" stroke="black" points="269.692,-165.125 275.505,-169.393 273.801,-176.4 267.989,-172.132 269.692,-165.125"/>
<text text-anchor="middle" x="298.5" y="-146.8" font-family="Times New Roman,serif" font-size="14.00" fill="green">mplwidget</text>
</g>
<!-- 17 -->
<g id="node18" class="node"><title>17</title>
<polygon fill="none" stroke="black" points="325,-176.5 325,-212.5 394,-212.5 394,-176.5 325,-176.5"/>
<text text-anchor="middle" x="359.5" y="-190.8" font-family="Times New Roman,serif" font-size="14.00">PlotImpz</text>
</g>
<!-- 12&#45;&gt;17 -->
<g id="edge14" class="edge"><title>12&#45;&gt;17</title>
<path fill="none" stroke="black" d="M282.451,-116.453C299.822,-121.834 319.205,-130.207 333.5,-143 340.116,-148.92 345.294,-156.923 349.227,-164.81"/>
<polygon fill="black" stroke="black" points="349.323,-165.029 355.389,-168.929 354.122,-176.028 348.057,-172.128 349.323,-165.029"/>
<text text-anchor="middle" x="376.5" y="-146.8" font-family="Times New Roman,serif" font-size="14.00" fill="green">mplwidget</text>
</g>
<!-- 18 -->
<g id="node19" class="node"><title>18</title>
<polygon fill="none" stroke="black" points="412,-176.5 412,-212.5 469,-212.5 469,-176.5 412,-176.5"/>
<text text-anchor="middle" x="440.5" y="-190.8" font-family="Times New Roman,serif" font-size="14.00">PlotPZ</text>
</g>
<!-- 12&#45;&gt;18 -->
<g id="edge15" class="edge"><title>12&#45;&gt;18</title>
<path fill="none" stroke="black" d="M282.301,-106.867C319.49,-108.319 373.691,-115.6 411.5,-143 419.267,-148.629 425.26,-157.021 429.727,-165.356"/>
<polygon fill="black" stroke="black" points="429.817,-165.549 435.981,-169.292 434.897,-176.421 428.733,-172.678 429.817,-165.549"/>
<text text-anchor="middle" x="456.5" y="-146.8" font-family="Times New Roman,serif" font-size="14.00" fill="green">mplwidget</text>
</g>
<!-- 19 -->
<g id="node20" class="node"><title>19</title>
<polygon fill="none" stroke="black" points="0,-176.5 0,-212.5 59,-212.5 59,-176.5 0,-176.5"/>
<text text-anchor="middle" x="29.5" y="-190.8" font-family="Times New Roman,serif" font-size="14.00">PlotPhi</text>
</g>
<!-- 12&#45;&gt;19 -->
<g id="edge16" class="edge"><title>12&#45;&gt;19</title>
<path fill="none" stroke="black" d="M198.785,-110.799C150.205,-115.405 73.7593,-125.263 51.5,-143 44.5654,-148.526 39.7681,-156.673 36.4696,-164.818"/>
<polygon fill="black" stroke="black" points="36.3937,-165.049 38.313,-172 32.6349,-176.445 30.7156,-169.494 36.3937,-165.049"/>
<text text-anchor="middle" x="82.5" y="-146.8" font-family="Times New Roman,serif" font-size="14.00" fill="green">mplwidget</text>
</g>
<!-- 20 -->
<g id="node21" class="node"><title>20</title>
<polygon fill="none" stroke="black" points="77,-176.5 77,-212.5 150,-212.5 150,-176.5 77,-176.5"/>
<text text-anchor="middle" x="113.5" y="-190.8" font-family="Times New Roman,serif" font-size="14.00">PlotTauG</text>
</g>
<!-- 12&#45;&gt;20 -->
<g id="edge17" class="edge"><title>12&#45;&gt;20</title>
<path fill="none" stroke="black" d="M198.96,-110.245C174.334,-114.054 144.348,-122.863 125.5,-143 120.149,-148.717 117.048,-156.371 115.286,-163.988"/>
<polygon fill="black" stroke="black" points="115.259,-164.167 118.312,-170.7 113.456,-176.031 110.403,-169.498 115.259,-164.167"/>
<text text-anchor="middle" x="156.5" y="-146.8" font-family="Times New Roman,serif" font-size="14.00" fill="green">mplwidget</text>
</g>
<!-- 13 -->
<g id="node14" class="node"><title>13</title>
<polygon fill="none" stroke="black" points="187,-0.5 187,-36.5 294,-36.5 294,-0.5 187,-0.5"/>
<text text-anchor="middle" x="240.5" y="-14.8" font-family="Times New Roman,serif" font-size="14.00">MyMplToolbar</text>
</g>
<!-- 13&#45;&gt;12 -->
<g id="edge18" class="edge"><title>13&#45;&gt;12</title>
<path fill="none" stroke="black" d="M240.5,-36.9034C240.5,-48.1675 240.5,-63.116 240.5,-76.1827"/>
<polygon fill="black" stroke="black" points="240.5,-76.416 244.5,-82.416 240.5,-88.416 236.5,-82.416 240.5,-76.416"/>
<text text-anchor="middle" x="275" y="-58.8" font-family="Times New Roman,serif" font-size="14.00" fill="green">mplToolbar</text>
</g>
<!-- 15 -->
<g id="node16" class="node"><title>15</title>
<polygon fill="none" stroke="black" points="250.5,-264.5 250.5,-300.5 308.5,-300.5 308.5,-264.5 250.5,-264.5"/>
<text text-anchor="middle" x="279.5" y="-278.8" font-family="Times New Roman,serif" font-size="14.00">PlotAll</text>
</g>
<!-- 14&#45;&gt;15 -->
<g id="edge19" class="edge"><title>14&#45;&gt;15</title>
<path fill="none" stroke="black" d="M212.985,-212.789C220.981,-222.761 231.481,-235.386 241.5,-246 244.595,-249.278 247.928,-252.629 251.289,-255.898"/>
<polygon fill="black" stroke="black" points="251.398,-256.001 258.504,-257.227 260.106,-264.258 253,-263.032 251.398,-256.001"/>
<text text-anchor="middle" x="258.5" y="-234.8" font-family="Times New Roman,serif" font-size="14.00" fill="green">plt3D</text>
</g>
<!-- 15&#45;&gt;29 -->
<g id="edge20" class="edge"><title>15&#45;&gt;29</title>
<path fill="none" stroke="black" d="M308.683,-294.045C350.45,-309.137 427.508,-336.982 475.432,-354.299"/>
<polygon fill="black" stroke="black" points="475.663,-354.382 482.665,-352.659 486.949,-358.46 479.946,-360.183 475.663,-354.382"/>
<text text-anchor="middle" x="430.5" y="-322.8" font-family="Times New Roman,serif" font-size="14.00" fill="green">pltAll</text>
</g>
<!-- 16&#45;&gt;15 -->
<g id="edge21" class="edge"><title>16&#45;&gt;15</title>
<path fill="none" stroke="black" d="M279.5,-212.903C279.5,-224.167 279.5,-239.116 279.5,-252.183"/>
<polygon fill="black" stroke="black" points="279.5,-252.416 283.5,-258.416 279.5,-264.416 275.5,-258.416 279.5,-252.416"/>
<text text-anchor="middle" x="295" y="-234.8" font-family="Times New Roman,serif" font-size="14.00" fill="green">pltHf</text>
</g>
<!-- 17&#45;&gt;15 -->
<g id="edge22" class="edge"><title>17&#45;&gt;15</title>
<path fill="none" stroke="black" d="M344.71,-212.525C336.03,-222.408 324.78,-235.033 314.5,-246 311.57,-249.126 308.465,-252.37 305.361,-255.57"/>
<polygon fill="black" stroke="black" points="305.168,-255.767 303.824,-262.852 296.767,-264.336 298.111,-257.251 305.168,-255.767"/>
<text text-anchor="middle" x="350" y="-234.8" font-family="Times New Roman,serif" font-size="14.00" fill="green">pltImpz</text>
</g>
<!-- 18&#45;&gt;15 -->
<g id="edge23" class="edge"><title>18&#45;&gt;15</title>
<path fill="none" stroke="black" d="M422.03,-212.674C409.817,-223.348 393.057,-236.751 376.5,-246 358.862,-255.853 337.961,-263.909 320.086,-269.842"/>
<polygon fill="black" stroke="black" points="319.99,-269.872 315.489,-275.506 308.557,-273.518 313.058,-267.885 319.99,-269.872"/>
<text text-anchor="middle" x="416" y="-234.8" font-family="Times New Roman,serif" font-size="14.00" fill="green">pltPZ</text>
</g>
<!-- 19&#45;&gt;15 -->
<g id="edge24" class="edge"><title>19&#45;&gt;15</title>
<path fill="none" stroke="black" d="M53.6477,-212.501C70.3263,-223.52 93.4023,-237.377 115.5,-246 155.687,-261.683 204.256,-271.101 238.064,-276.254"/>
<polygon fill="black" stroke="black" points="238.375,-276.299 244.887,-273.203 250.25,-278.024 243.737,-281.12 238.375,-276.299"/>
<text text-anchor="middle" x="133" y="-234.8" font-family="Times New Roman,serif" font-size="14.00" fill="green">pltPhi</text>
</g>
<!-- 20&#45;&gt;15 -->
<g id="edge25" class="edge"><title>20&#45;&gt;15</title>
<path fill="none" stroke="black" d="M130.974,-212.59C142.764,-223.366 159.109,-236.912 175.5,-246 195.121,-256.879 218.661,-265.254 238.379,-271.13"/>
<polygon fill="black" stroke="black" points="238.552,-271.179 245.418,-268.975 250.093,-274.465 243.227,-276.669 238.552,-271.179"/>
<text text-anchor="middle" x="200" y="-234.8" font-family="Times New Roman,serif" font-size="14.00" fill="green">pltTauG</text>
</g>
<!-- 21&#45;&gt;10 -->
<g id="edge26" class="edge"><title>21&#45;&gt;10</title>
<path fill="none" stroke="black" d="M1093.22,-124.531C1068.63,-134.706 1036.45,-147.626 1007.5,-158 987.941,-165.009 966.215,-172.06 947.143,-178.011"/>
<polygon fill="black" stroke="black" points="947.119,-178.018 942.568,-183.612 935.655,-181.563 940.205,-175.969 947.119,-178.018"/>
<text text-anchor="middle" x="1051.5" y="-146.8" font-family="Times New Roman,serif" font-size="14.00" fill="green">sf</text>
</g>
<!-- 22 -->
<g id="node23" class="node"><title>22</title>
<polygon fill="none" stroke="black" points="1281.5,-0.5 1281.5,-36.5 1335.5,-36.5 1335.5,-0.5 1281.5,-0.5"/>
<text text-anchor="middle" x="1308.5" y="-14.8" font-family="Times New Roman,serif" font-size="14.00">bessel</text>
</g>
<!-- 23 -->
<g id="node24" class="node"><title>23</title>
<polygon fill="none" stroke="black" points="1353.5,-0.5 1353.5,-36.5 1407.5,-36.5 1407.5,-0.5 1353.5,-0.5"/>
<text text-anchor="middle" x="1380.5" y="-14.8" font-family="Times New Roman,serif" font-size="14.00">butter</text>
</g>
<!-- 24 -->
<g id="node25" class="node"><title>24</title>
<polygon fill="none" stroke="black" points="1426,-0.5 1426,-36.5 1485,-36.5 1485,-0.5 1426,-0.5"/>
<text text-anchor="middle" x="1455.5" y="-14.8" font-family="Times New Roman,serif" font-size="14.00">cheby1</text>
</g>
<!-- 25 -->
<g id="node26" class="node"><title>25</title>
<polygon fill="none" stroke="black" points="1503,-0.5 1503,-36.5 1562,-36.5 1562,-0.5 1503,-0.5"/>
<text text-anchor="middle" x="1532.5" y="-14.8" font-family="Times New Roman,serif" font-size="14.00">cheby2</text>
</g>
<!-- 26 -->
<g id="node27" class="node"><title>26</title>
<polygon fill="none" stroke="black" points="1580.5,-0.5 1580.5,-36.5 1634.5,-36.5 1634.5,-0.5 1580.5,-0.5"/>
<text text-anchor="middle" x="1607.5" y="-14.8" font-family="Times New Roman,serif" font-size="14.00">ellip</text>
</g>
<!-- 27 -->
<g id="node28" class="node"><title>27</title>
<polygon fill="none" stroke="black" points="1652.5,-0.5 1652.5,-36.5 1726.5,-36.5 1726.5,-0.5 1652.5,-0.5"/>
<text text-anchor="middle" x="1689.5" y="-14.8" font-family="Times New Roman,serif" font-size="14.00">equiripple</text>
</g>
<!-- 28 -->
<g id="node29" class="node"><title>28</title>
<polygon fill="none" stroke="black" points="1744.5,-0.5 1744.5,-36.5 1798.5,-36.5 1798.5,-0.5 1744.5,-0.5"/>
<text text-anchor="middle" x="1771.5" y="-14.8" font-family="Times New Roman,serif" font-size="14.00">firwin</text>
</g>
</g>
</svg>
