<?xml version="1.0" encoding="UTF-8"?>
<!DOCTYPE svg  PUBLIC '-//W3C//DTD SVG 1.1//EN'  'http://www.w3.org/Graphics/SVG/1.1/DTD/svg11.dtd'>
<svg width="8mm" height="8mm" fill-rule="evenodd" stroke-linejoin="round" stroke-width="28.222" preserveAspectRatio="xMidYMid" version="1.2" viewBox="0 0 800 800" xml:space="preserve" xmlns="http://www.w3.org/2000/svg" xmlns:ooo="http://xml.openoffice.org/svg/export">
 <defs class="ClipPathGroup">
  <clipPath id="presentation_clip_path">
   <rect width="800" height="800"/>
  </clipPath>
  
 </defs>
 <defs class="TextShapeIndex">
  
 </defs>
 <defs class="EmbeddedBulletChars">
  
  
  
  
  
  
  
  
  
  
 </defs>
 
 
  <g id="id2" class="Master_Slide">
   
   
  </g>
 
 <g class="SlideGroup">
  
   <g id="container-id1">
    <g id="id1" class="Slide" clip-path="url(#presentation_clip_path)">
     <g class="Page">
      <g class="com.sun.star.drawing.LineShape">
       <g id="id3" fill="none">
        <rect class="BoundingBox" x="298" y="98" width="13" height="613"/>
        <path d="m304 104v600" stroke="#000" stroke-linejoin="round" stroke-width="11"/>
       </g>
      </g>
      <g class="com.sun.star.drawing.CustomShape">
       <g id="id4" fill="none">
        <rect class="BoundingBox" x="26" y="27" width="755" height="754"/>
        <path d="m403 741h-338v-675h676v675h-338z" stroke="#000" stroke-linecap="square" stroke-linejoin="miter" stroke-width="78"/>
       </g>
      </g>
      <g class="com.sun.star.drawing.LineShape" fill="none">
       <g id="id5">
        <rect class="BoundingBox" x="498" y="98" width="13" height="613"/>
        <path d="m504 104v600" stroke="#000" stroke-linejoin="round" stroke-width="11"/>
       </g>
      
      
       <g id="id6">
        <rect class="BoundingBox" x="98" y="298" width="613" height="13"/>
        <path d="m704 304h-600" stroke="#000" stroke-linejoin="round" stroke-width="11"/>
       </g>
      
      
       <g id="id7">
        <rect class="BoundingBox" x="98" y="498" width="613" height="13"/>
        <path d="m704 504h-600" stroke="#000" stroke-linejoin="round" stroke-width="11"/>
       </g>
      </g>
      <g class="Group">
       <g class="com.sun.star.drawing.LineShape" fill="none">
        <g id="id8">
         <rect class="BoundingBox" x="202" y="354" width="5" height="105"/>
         <path d="m204 356v100" stroke="#000" stroke-linejoin="round" stroke-width="4"/>
        </g>
       
       
        <g id="id9">
         <rect class="BoundingBox" x="202" y="152" width="5" height="105"/>
         <path d="m204 154v100" stroke="#000" stroke-linejoin="round" stroke-width="4"/>
        </g>
       
       
        <g id="id10">
         <rect class="BoundingBox" x="202" y="552" width="5" height="105"/>
         <path d="m204 554v100" stroke="#000" stroke-linejoin="round" stroke-width="4"/>
        </g>
       
      
      
       
        <g id="id11">
         <rect class="BoundingBox" x="402" y="354" width="5" height="105"/>
         <path d="m404 356v100" stroke="#000" stroke-linejoin="round" stroke-width="4"/>
        </g>
       
       
        <g id="id12">
         <rect class="BoundingBox" x="402" y="152" width="5" height="105"/>
         <path d="m404 154v100" stroke="#000" stroke-linejoin="round" stroke-width="4"/>
        </g>
       
       
        <g id="id13">
         <rect class="BoundingBox" x="402" y="552" width="5" height="105"/>
         <path d="m404 554v100" stroke="#000" stroke-linejoin="round" stroke-width="4"/>
        </g>
       
      
      
       
        <g id="id14">
         <rect class="BoundingBox" x="602" y="354" width="5" height="105"/>
         <path d="m604 356v100" stroke="#000" stroke-linejoin="round" stroke-width="4"/>
        </g>
       
       
        <g id="id15">
         <rect class="BoundingBox" x="602" y="152" width="5" height="105"/>
         <path d="m604 154v100" stroke="#000" stroke-linejoin="round" stroke-width="4"/>
        </g>
       
       
        <g id="id16">
         <rect class="BoundingBox" x="602" y="552" width="5" height="105"/>
         <path d="m604 554v100" stroke="#000" stroke-linejoin="round" stroke-width="4"/>
        </g>
       
      
      
       
        <g id="id17">
         <rect class="BoundingBox" x="354" y="402" width="105" height="5"/>
         <path d="m356 404h100" stroke="#000" stroke-linejoin="round" stroke-width="4"/>
        </g>
       
       
        <g id="id18">
         <rect class="BoundingBox" x="152" y="402" width="105" height="5"/>
         <path d="m154 404h100" stroke="#000" stroke-linejoin="round" stroke-width="4"/>
        </g>
       
       
        <g id="id19">
         <rect class="BoundingBox" x="552" y="402" width="105" height="5"/>
         <path d="m554 404h100" stroke="#000" stroke-linejoin="round" stroke-width="4"/>
        </g>
       
      
      
       
        <g id="id20">
         <rect class="BoundingBox" x="354" y="202" width="105" height="5"/>
         <path d="m356 204h100" stroke="#000" stroke-linejoin="round" stroke-width="4"/>
        </g>
       
       
        <g id="id21">
         <rect class="BoundingBox" x="152" y="202" width="105" height="5"/>
         <path d="m154 204h100" stroke="#000" stroke-linejoin="round" stroke-width="4"/>
        </g>
       
       
        <g id="id22">
         <rect class="BoundingBox" x="552" y="202" width="105" height="5"/>
         <path d="m554 204h100" stroke="#000" stroke-linejoin="round" stroke-width="4"/>
        </g>
       
      
      
       
        <g id="id23">
         <rect class="BoundingBox" x="354" y="602" width="105" height="5"/>
         <path d="m356 604h100" stroke="#000" stroke-linejoin="round" stroke-width="4"/>
        </g>
       
       
        <g id="id24">
         <rect class="BoundingBox" x="152" y="602" width="105" height="5"/>
         <path d="m154 604h100" stroke="#000" stroke-linejoin="round" stroke-width="4"/>
        </g>
       
       
        <g id="id25">
         <rect class="BoundingBox" x="552" y="602" width="105" height="5"/>
         <path d="m554 604h100" stroke="#000" stroke-linejoin="round" stroke-width="4"/>
        </g>
       </g>
      </g>
     </g>
    </g>
   </g>
  
 </g>
</svg>
