<?xml version="1.0" encoding="UTF-8"?>
<!DOCTYPE svg  PUBLIC '-//W3C//DTD SVG 1.1//EN'  'http://www.w3.org/Graphics/SVG/1.1/DTD/svg11.dtd'>
<svg width="8.47mm" height="8.47mm" fill-rule="evenodd" stroke-linejoin="round" stroke-width="28.222" preserveAspectRatio="xMidYMid" version="1.2" viewBox="0 0 847 847" xml:space="preserve" xmlns="http://www.w3.org/2000/svg" xmlns:ooo="http://xml.openoffice.org/svg/export">
 <defs class="ClipPathGroup">
  <clipPath id="a">
   <rect width="847" height="847"/>
  </clipPath>
  
 </defs>
 <defs class="TextShapeIndex">
  
 </defs>
 <defs class="EmbeddedBulletChars">
  
  
  
  
  
  
  
  
  
  
 </defs>
 
 
  <g class="Master_Slide">
   
   
  </g>
 
 <g class="SlideGroup">
  
   
    <g class="Slide" clip-path="url(#a)">
     <g class="Page">
      <g class="com.sun.star.drawing.PolyPolygonShape">
       
        <rect class="BoundingBox" width="849" height="849" fill="none"/>
       
      </g>
      <g class="com.sun.star.drawing.CustomShape">
       
        <rect class="BoundingBox" x="99" y="76" width="704" height="704" fill="none"/>
        <path d="m450 77c198 0 350 152 350 350s-152 350-350 350-350-152-350-350 152-350 350-350zm-1 64c161 0 285 124 285 285s-124 285-285 285-285-124-285-285 124-285 285-285zm-349-64zm701 701z"/>
        <path d="m450 77c198 0 350 152 350 350s-152 350-350 350-350-152-350-350 152-350 350-350z" fill="none" stroke="#000"/>
        <path d="m449 141c161 0 285 124 285 285s-124 285-285 285-285-124-285-285 124-285 285-285z" fill="none" stroke="#000"/>
        <path d="m100 77z" fill="none" stroke="#000"/>
        <path d="m801 778z" fill="none" stroke="#000"/>
       
      </g>
      <g class="com.sun.star.drawing.ClosedBezierShape">
       <g>
        <rect class="BoundingBox" x="326" y="166" width="268" height="527" fill="none"/>
        <path d="m326 240c0-17 11-33 34-49s52-24 88-24c44-1 79 10 105 32 26 23 39 52 39 87 1 15-1 29-5 42s-10 26-18 37-15 20-21 28c-6 7-14 15-24 24-9 9-15 14-17 16-14 13-22 26-25 39-3 14-4 34-4 60 0 15-11 22-32 23-11 0-19-2-24-7-4-5-7-13-7-25-1-54 12-93 40-117 3-3 9-8 19-16s17-14 22-19c4-5 10-12 16-20s11-17 14-27c2-10 4-20 3-31 0-23-7-40-22-52-15-13-35-19-61-18-15 0-28 2-38 7-11 5-18 10-22 16s-9 11-14 16c-5 4-11 7-16 7-7 0-14-3-20-8s-9-12-10-21zm81 413c0-10 3-20 11-27 8-8 18-12 29-12 13 0 23 3 32 11 9 7 14 16 14 27s-4 20-13 28-19 12-31 12-22-4-30-11c-8-8-12-17-12-28z"/>
       </g>
      </g>
     </g>
    </g>
   
  
 </g>
</svg>
