<?xml version="1.0" encoding="UTF-8"?>
<!DOCTYPE svg PUBLIC "-//W3C//DTD SVG 1.1//EN" "http://www.w3.org/Graphics/SVG/1.1/DTD/svg11.dtd">
<svg version="1.2" width="34.01mm" height="34.01mm" viewBox="12700 17900 3401 3401" preserveAspectRatio="xMidYMid" fill-rule="evenodd" stroke-width="28.222" stroke-linejoin="round" xmlns="http://www.w3.org/2000/svg" xmlns:ooo="http://xml.openoffice.org/svg/export" xmlns:xlink="http://www.w3.org/1999/xlink" xmlns:presentation="http://sun.com/xmlns/staroffice/presentation" xmlns:smil="http://www.w3.org/2001/SMIL20/" xmlns:anim="urn:oasis:names:tc:opendocument:xmlns:animation:1.0" xml:space="preserve">
 <defs class="EmbeddedBulletChars">
  <g id="bullet-char-template-57356" transform="scale(0.00048828125,-0.00048828125)">
   <path d="M 580,1141 L 1163,571 580,0 -4,571 580,1141 Z"/>
  </g>
  <g id="bullet-char-template-57354" transform="scale(0.00048828125,-0.00048828125)">
   <path d="M 8,1128 L 1137,1128 1137,0 8,0 8,1128 Z"/>
  </g>
  <g id="bullet-char-template-10146" transform="scale(0.00048828125,-0.00048828125)">
   <path d="M 174,0 L 602,739 174,1481 1456,739 174,0 Z M 1358,739 L 309,1346 659,739 1358,739 Z"/>
  </g>
  <g id="bullet-char-template-10132" transform="scale(0.00048828125,-0.00048828125)">
   <path d="M 2015,739 L 1276,0 717,0 1260,543 174,543 174,936 1260,936 717,1481 1274,1481 2015,739 Z"/>
  </g>
  <g id="bullet-char-template-10007" transform="scale(0.00048828125,-0.00048828125)">
   <path d="M 0,-2 C -7,14 -16,27 -25,37 L 356,567 C 262,823 215,952 215,954 215,979 228,992 255,992 264,992 276,990 289,987 310,991 331,999 354,1012 L 381,999 492,748 772,1049 836,1024 860,1049 C 881,1039 901,1025 922,1006 886,937 835,863 770,784 769,783 710,716 594,584 L 774,223 C 774,196 753,168 711,139 L 727,119 C 717,90 699,76 672,76 641,76 570,178 457,381 L 164,-76 C 142,-110 111,-127 72,-127 30,-127 9,-110 8,-76 1,-67 -2,-52 -2,-32 -2,-23 -1,-13 0,-2 Z"/>
  </g>
  <g id="bullet-char-template-10004" transform="scale(0.00048828125,-0.00048828125)">
   <path d="M 285,-33 C 182,-33 111,30 74,156 52,228 41,333 41,471 41,549 55,616 82,672 116,743 169,778 240,778 293,778 328,747 346,684 L 369,508 C 377,444 397,411 428,410 L 1163,1116 C 1174,1127 1196,1133 1229,1133 1271,1133 1292,1118 1292,1087 L 1292,965 C 1292,929 1282,901 1262,881 L 442,47 C 390,-6 338,-33 285,-33 Z"/>
  </g>
  <g id="bullet-char-template-9679" transform="scale(0.00048828125,-0.00048828125)">
   <path d="M 813,0 C 632,0 489,54 383,161 276,268 223,411 223,592 223,773 276,916 383,1023 489,1130 632,1184 813,1184 992,1184 1136,1130 1245,1023 1353,916 1407,772 1407,592 1407,412 1353,268 1245,161 1136,54 992,0 813,0 Z"/>
  </g>
  <g id="bullet-char-template-8226" transform="scale(0.00048828125,-0.00048828125)">
   <path d="M 346,457 C 273,457 209,483 155,535 101,586 74,649 74,723 74,796 101,859 155,911 209,963 273,989 346,989 419,989 480,963 531,910 582,859 608,796 608,723 608,648 583,586 532,535 482,483 420,457 346,457 Z"/>
  </g>
  <g id="bullet-char-template-8211" transform="scale(0.00048828125,-0.00048828125)">
   <path d="M -4,459 L 1135,459 1135,606 -4,606 -4,459 Z"/>
  </g>
  <g id="bullet-char-template-61548" transform="scale(0.00048828125,-0.00048828125)">
   <path d="M 173,740 C 173,903 231,1043 346,1159 462,1274 601,1332 765,1332 928,1332 1067,1274 1183,1159 1299,1043 1357,903 1357,740 1357,577 1299,437 1183,322 1067,206 928,148 765,148 601,148 462,206 346,322 231,437 173,577 173,740 Z"/>
  </g>
 </defs>
 <g class="Page">
  <g class="Group">
   <g class="com.sun.star.drawing.CustomShape">
    <g id="id3">
     <rect class="BoundingBox" stroke="none" fill="none" x="12700" y="17900" width="3401" height="3401"/>
    </g>
   </g>
   <g class="Group">
    <g class="Group">
     <g class="com.sun.star.drawing.OpenBezierShape">
      <g id="id4">
       <rect class="BoundingBox" stroke="none" fill="none" x="12822" y="17991" width="201" height="997"/>
       <path fill="none" stroke="rgb(102,102,102)" stroke-width="200" stroke-linejoin="round" stroke-linecap="square" d="M 12922,18091 L 12922,18886"/>
      </g>
     </g>
     <g class="com.sun.star.drawing.OpenBezierShape">
      <g id="id5">
       <rect class="BoundingBox" stroke="none" fill="none" x="14311" y="17992" width="201" height="2134"/>
       <path fill="none" stroke="rgb(102,102,102)" stroke-width="200" stroke-linejoin="round" stroke-linecap="square" d="M 14411,18092 L 14411,20025"/>
      </g>
     </g>
     <g class="com.sun.star.drawing.EllipseShape">
      <g id="id6">
       <rect class="BoundingBox" stroke="none" fill="none" x="13314" y="18010" width="706" height="1541"/>
       <path fill="none" stroke="rgb(102,102,102)" stroke-width="200" stroke-linejoin="round" d="M 13667,19450 C 13622,19450 13579,19419 13540,19360 13502,19301 13470,19217 13448,19115 13426,19013 13414,18898 13414,18780 13414,18662 13426,18547 13448,18445 13470,18343 13502,18259 13540,18200 13579,18141 13622,18110 13667,18110 13711,18110 13754,18141 13793,18200 13831,18259 13863,18343 13885,18445 13907,18547 13919,18662 13919,18780 13919,18898 13907,19013 13885,19115 13863,19217 13831,19301 13793,19360 13754,19419 13711,19450 13667,19450 Z"/>
      </g>
     </g>
     <g class="com.sun.star.drawing.EllipseShape">
      <g id="id7">
       <rect class="BoundingBox" stroke="none" fill="none" x="14763" y="18010" width="786" height="2500"/>
       <path fill="none" stroke="rgb(102,102,102)" stroke-width="200" stroke-linejoin="round" d="M 15156,20409 C 15104,20409 15054,20356 15009,20255 14965,20154 14928,20009 14902,19834 14877,19660 14863,19461 14863,19260 14863,19058 14877,18859 14902,18685 14928,18510 14965,18365 15009,18264 15054,18163 15104,18110 15156,18110 15207,18110 15257,18163 15302,18264 15346,18365 15383,18510 15409,18685 15434,18859 15448,19058 15448,19260 15448,19461 15434,19660 15409,19834 15383,20009 15346,20154 15302,20255 15257,20356 15207,20409 15156,20409 Z"/>
      </g>
     </g>
     <g class="com.sun.star.drawing.LineShape">
      <g id="id8">
       <rect class="BoundingBox" stroke="none" fill="none" x="15800" y="17991" width="201" height="3176"/>
       <path fill="none" stroke="rgb(102,102,102)" stroke-width="200" stroke-linejoin="round" stroke-linecap="square" d="M 15900,18091 L 15900,21066"/>
      </g>
     </g>
    </g>
    <g class="com.sun.star.drawing.OpenBezierShape">
     <g id="id9">
      <rect class="BoundingBox" stroke="none" fill="none" x="12825" y="19021" width="2948" height="2164"/>
      <path fill="none" stroke="rgb(184,0,71)" stroke-width="150" stroke-linejoin="round" d="M 15697,20993 C 15602,21163 15559,21090 15495,20967 15431,20844 15390,20726 15295,20938 15201,21200 15158,21088 15093,20902 15028,20716 14986,20543 14894,20863 L 14894,20855 C 14801,21244 14758,21080 14692,20810 14626,20538 14585,20291 14493,20755 14399,21307 14377,21093 14292,20695 14227,20311 14182,19975 14091,20626 L 14091,20623 C 14000,21386 13999,21166 13892,20545 13828,20026 13783,19556 13692,20440 13600,21468 13573,21166 13492,20342 13427,19645 13386,19053 13292,20233 13200,21480 13200,21286 13095,20111 13035,19200 12994,18439 12900,19979"/>
     </g>
    </g>
   </g>
  </g>
 </g>
</svg>