<?xml version="1.0" encoding="UTF-8"?>
<!DOCTYPE svg PUBLIC "-//W3C//DTD SVG 1.1//EN" "http://www.w3.org/Graphics/SVG/1.1/DTD/svg11.dtd">
<svg version="1.2" width="33.01mm" height="33.01mm" viewBox="13013 17100 3301 3301" preserveAspectRatio="xMidYMid" fill-rule="evenodd" stroke-width="28.222" stroke-linejoin="round" xmlns="http://www.w3.org/2000/svg" xmlns:ooo="http://xml.openoffice.org/svg/export" xmlns:xlink="http://www.w3.org/1999/xlink" xmlns:presentation="http://sun.com/xmlns/staroffice/presentation" xmlns:smil="http://www.w3.org/2001/SMIL20/" xmlns:anim="urn:oasis:names:tc:opendocument:xmlns:animation:1.0" xml:space="preserve">
 <defs class="EmbeddedBulletChars">
  <g id="bullet-char-template-57356" transform="scale(0.00048828125,-0.00048828125)">
   <path d="M 580,1141 L 1163,571 580,0 -4,571 580,1141 Z"/>
  </g>
  <g id="bullet-char-template-57354" transform="scale(0.00048828125,-0.00048828125)">
   <path d="M 8,1128 L 1137,1128 1137,0 8,0 8,1128 Z"/>
  </g>
  <g id="bullet-char-template-10146" transform="scale(0.00048828125,-0.00048828125)">
   <path d="M 174,0 L 602,739 174,1481 1456,739 174,0 Z M 1358,739 L 309,1346 659,739 1358,739 Z"/>
  </g>
  <g id="bullet-char-template-10132" transform="scale(0.00048828125,-0.00048828125)">
   <path d="M 2015,739 L 1276,0 717,0 1260,543 174,543 174,936 1260,936 717,1481 1274,1481 2015,739 Z"/>
  </g>
  <g id="bullet-char-template-10007" transform="scale(0.00048828125,-0.00048828125)">
   <path d="M 0,-2 C -7,14 -16,27 -25,37 L 356,567 C 262,823 215,952 215,954 215,979 228,992 255,992 264,992 276,990 289,987 310,991 331,999 354,1012 L 381,999 492,748 772,1049 836,1024 860,1049 C 881,1039 901,1025 922,1006 886,937 835,863 770,784 769,783 710,716 594,584 L 774,223 C 774,196 753,168 711,139 L 727,119 C 717,90 699,76 672,76 641,76 570,178 457,381 L 164,-76 C 142,-110 111,-127 72,-127 30,-127 9,-110 8,-76 1,-67 -2,-52 -2,-32 -2,-23 -1,-13 0,-2 Z"/>
  </g>
  <g id="bullet-char-template-10004" transform="scale(0.00048828125,-0.00048828125)">
   <path d="M 285,-33 C 182,-33 111,30 74,156 52,228 41,333 41,471 41,549 55,616 82,672 116,743 169,778 240,778 293,778 328,747 346,684 L 369,508 C 377,444 397,411 428,410 L 1163,1116 C 1174,1127 1196,1133 1229,1133 1271,1133 1292,1118 1292,1087 L 1292,965 C 1292,929 1282,901 1262,881 L 442,47 C 390,-6 338,-33 285,-33 Z"/>
  </g>
  <g id="bullet-char-template-9679" transform="scale(0.00048828125,-0.00048828125)">
   <path d="M 813,0 C 632,0 489,54 383,161 276,268 223,411 223,592 223,773 276,916 383,1023 489,1130 632,1184 813,1184 992,1184 1136,1130 1245,1023 1353,916 1407,772 1407,592 1407,412 1353,268 1245,161 1136,54 992,0 813,0 Z"/>
  </g>
  <g id="bullet-char-template-8226" transform="scale(0.00048828125,-0.00048828125)">
   <path d="M 346,457 C 273,457 209,483 155,535 101,586 74,649 74,723 74,796 101,859 155,911 209,963 273,989 346,989 419,989 480,963 531,910 582,859 608,796 608,723 608,648 583,586 532,535 482,483 420,457 346,457 Z"/>
  </g>
  <g id="bullet-char-template-8211" transform="scale(0.00048828125,-0.00048828125)">
   <path d="M -4,459 L 1135,459 1135,606 -4,606 -4,459 Z"/>
  </g>
  <g id="bullet-char-template-61548" transform="scale(0.00048828125,-0.00048828125)">
   <path d="M 173,740 C 173,903 231,1043 346,1159 462,1274 601,1332 765,1332 928,1332 1067,1274 1183,1159 1299,1043 1357,903 1357,740 1357,577 1299,437 1183,322 1067,206 928,148 765,148 601,148 462,206 346,322 231,437 173,577 173,740 Z"/>
  </g>
 </defs>
 <g class="Page">
  <g class="Group">
   <g class="com.sun.star.drawing.CustomShape">
    <g id="id3">
     <rect class="BoundingBox" stroke="none" fill="none" x="13013" y="17100" width="3301" height="3301"/>
     <path fill="rgb(255,255,255)" fill-opacity="0.2" stroke="rgb(255,255,255)" stroke-opacity="0.2" d="M 14663,20400 L 13013,20400 13013,17100 16313,17100 16313,20400 14663,20400 Z"/>
    </g>
   </g>
   <g class="Group">
    <g class="Group">
     <g class="com.sun.star.drawing.OpenBezierShape">
      <g id="id4">
       <rect class="BoundingBox" stroke="none" fill="none" x="13072" y="17141" width="201" height="996"/>
       <path fill="none" stroke="rgb(102,102,102)" stroke-width="200" stroke-linejoin="round" stroke-linecap="square" d="M 13172,17241 L 13172,18036"/>
      </g>
     </g>
     <g class="com.sun.star.drawing.OpenBezierShape">
      <g id="id5">
       <rect class="BoundingBox" stroke="none" fill="none" x="14561" y="17141" width="201" height="2135"/>
       <path fill="none" stroke="rgb(102,102,102)" stroke-width="200" stroke-linejoin="round" stroke-linecap="square" d="M 14661,17242 L 14661,19175"/>
      </g>
     </g>
     <g class="com.sun.star.drawing.EllipseShape">
      <g id="id6">
       <rect class="BoundingBox" stroke="none" fill="none" x="13564" y="17160" width="706" height="1541"/>
       <path fill="none" stroke="rgb(102,102,102)" stroke-width="200" stroke-linejoin="round" d="M 13917,18600 C 13872,18600 13829,18569 13790,18510 13752,18451 13720,18367 13698,18265 13676,18163 13664,18048 13664,17930 13664,17812 13676,17697 13698,17595 13720,17493 13752,17409 13790,17350 13829,17291 13872,17260 13917,17260 13961,17260 14004,17291 14043,17350 14081,17409 14113,17493 14135,17595 14157,17697 14169,17812 14169,17930 14169,18048 14157,18163 14135,18265 14113,18367 14081,18451 14043,18510 14004,18569 13961,18600 13917,18600 Z"/>
      </g>
     </g>
     <g class="com.sun.star.drawing.EllipseShape">
      <g id="id7">
       <rect class="BoundingBox" stroke="none" fill="none" x="15013" y="17160" width="786" height="2500"/>
       <path fill="none" stroke="rgb(102,102,102)" stroke-width="200" stroke-linejoin="round" d="M 15406,19559 C 15354,19559 15304,19506 15259,19405 15215,19304 15178,19159 15152,18984 15127,18810 15113,18611 15113,18410 15113,18208 15127,18009 15152,17835 15178,17660 15215,17515 15259,17414 15304,17313 15354,17260 15406,17260 15457,17260 15507,17313 15552,17414 15596,17515 15633,17660 15659,17835 15684,18009 15698,18208 15698,18410 15698,18611 15684,18810 15659,18984 15633,19159 15596,19304 15552,19405 15507,19506 15457,19559 15406,19559 Z"/>
      </g>
     </g>
     <g class="com.sun.star.drawing.LineShape">
      <g id="id8">
       <rect class="BoundingBox" stroke="none" fill="none" x="16050" y="17141" width="201" height="3176"/>
       <path fill="none" stroke="rgb(102,102,102)" stroke-width="200" stroke-linejoin="round" stroke-linecap="square" d="M 16150,17241 L 16150,20216"/>
      </g>
     </g>
    </g>
    <g class="com.sun.star.drawing.OpenBezierShape">
     <g id="id9">
      <rect class="BoundingBox" stroke="none" fill="none" x="13075" y="18172" width="2948" height="2164"/>
      <path fill="none" stroke="rgb(184,0,71)" stroke-width="150" stroke-linejoin="round" d="M 15947,20143 C 15852,20314 15809,20240 15745,20117 15681,19994 15640,19876 15545,20088 15451,20350 15408,20238 15343,20052 15278,19866 15236,19693 15144,20014 L 15144,20006 C 15051,20394 15008,20230 14942,19960 14876,19688 14835,19441 14743,19905 14649,20457 14627,20243 14542,19845 14477,19462 14432,19126 14341,19776 L 14341,19773 C 14250,20536 14249,20317 14142,19696 14078,19176 14033,18706 13942,19590 13850,20619 13823,20317 13742,19493 13677,18795 13636,18204 13542,19383 13450,20630 13450,20437 13345,19261 13285,18350 13244,17589 13150,19130"/>
     </g>
    </g>
   </g>
  </g>
 </g>
</svg>