<?xml version="1.0"?>
<svg width="38" height="35" xmlns="http://www.w3.org/2000/svg" xmlns:svg="http://www.w3.org/2000/svg">

 <g>
  <title>Layer 1</title>
  <path id="svg_1" d="m12.886,32.4216l3.535601,-3.5355l-3.535601,-3.535603l2.578501,-2.5784l3.5355,3.5355l3.5355,-3.5355l2.5784,2.5784l-3.5355,3.535503l3.535599,3.535599l-2.578499,2.5784l-3.5355,-3.5355l-3.5355,3.5355l-2.578501,-2.5784zm-12.886,-32.6716l8,0l0,8l-8,0l0,-8zm11.999901,0.000299l25.999798,0l0,8l-25.999798,0l0,-8zm-11.999901,10.999701l8,0l0,8l-8,0l0,-8zm1,1l0,6l6,0l0,-6l-6,0zm1,1l4,0l0,4l-4,0l0,-4zm10,-2l26,0l0,8l-26,0l0,-8z" stroke-linejoin="round" stroke-width="0.2" fill="#000000"/>
 </g>
</svg>