<?xml version="1.0"?>
<svg width="43" height="43" xmlns="http://www.w3.org/2000/svg" xmlns:svg="http://www.w3.org/2000/svg">
 <g>
  <title>Layer 1</title>
  <path fill="#000000" stroke-width="0.2" stroke-linejoin="round" d="m28.049999,41.799973l8,0l0,-9.999966l7.25,0l-11.25,-11.25l-11.25,11.25l7.25,0l0,9.999966zm-27.999999,-39.999972l30.249999,0l5.75,5.749998l0,14.500009l-4,-4l0,-9.000004l-3.25,-3.250005l-0.75,0l0,13.000009l-19.999999,0l0,-13.000009l-4,0l0,27.999974l21.999999,0l0,4l-25.999999,0l0,-35.999972zm18.999999,3.999998l0,10.000009l5,0l0,-10.000009l-5,0z" id="svg_1"/>
 </g>

</svg>