<svg xmlns="http://www.w3.org/2000/svg" xml:space="preserve" width="8mm" height="8mm" fill-rule="evenodd" stroke-linejoin="round" stroke-width="28.222" preserveAspectRatio="xMidYMid" version="1.2" viewBox="0 0 800 800"><defs class="ClipPathGroup"><clipPath id="a"><path d="M0 0h800v800H0z"/></clipPath></defs><g class="SlideGroup"><g class="Slide" clip-path="url(#a)"><g class="Page"><g fill="none" class="com.sun.star.drawing.LineShape"><path d="M298 98h13v613h-13z" class="BoundingBox"/><path stroke="#000" stroke-width="11" d="M304 104v600"/></g><g fill="none" class="com.sun.star.drawing.CustomShape"><path d="M26 27h755v754H26z" class="BoundingBox"/><path stroke="#000" stroke-linecap="square" stroke-linejoin="miter" stroke-width="78" d="M403 741H65V66h676v675H403z"/></g><g fill="none" class="com.sun.star.drawing.LineShape"><path d="M498 98h13v613h-13z" class="BoundingBox"/><path stroke="#000" stroke-width="11" d="M504 104v600"/><path d="M98 298h613v13H98z" class="BoundingBox"/><path stroke="#000" stroke-width="11" d="M704 304H104"/><path d="M98 498h613v13H98z" class="BoundingBox"/><path stroke="#000" stroke-width="11" d="M704 504H104"/></g><g class="Group"><g fill="none" class="com.sun.star.drawing.LineShape"><path d="M202 354h5v105h-5z" class="BoundingBox"/><path stroke="#000" stroke-width="4" d="M204 356v100"/><path d="M202 152h5v105h-5z" class="BoundingBox"/><path stroke="#000" stroke-width="4" d="M204 154v100"/><path d="M202 552h5v105h-5z" class="BoundingBox"/><path stroke="#000" stroke-width="4" d="M204 554v100"/><path d="M402 354h5v105h-5z" class="BoundingBox"/><path stroke="#000" stroke-width="4" d="M404 356v100"/><path d="M402 152h5v105h-5z" class="BoundingBox"/><path stroke="#000" stroke-width="4" d="M404 154v100"/><path d="M402 552h5v105h-5z" class="BoundingBox"/><path stroke="#000" stroke-width="4" d="M404 554v100"/><path d="M602 354h5v105h-5z" class="BoundingBox"/><path stroke="#000" stroke-width="4" d="M604 356v100"/><path d="M602 152h5v105h-5z" class="BoundingBox"/><path stroke="#000" stroke-width="4" d="M604 154v100"/><path d="M602 552h5v105h-5z" class="BoundingBox"/><path stroke="#000" stroke-width="4" d="M604 554v100"/><path d="M354 402h105v5H354z" class="BoundingBox"/><path stroke="#000" stroke-width="4" d="M356 404h100"/><path d="M152 402h105v5H152z" class="BoundingBox"/><path stroke="#000" stroke-width="4" d="M154 404h100"/><path d="M552 402h105v5H552z" class="BoundingBox"/><path stroke="#000" stroke-width="4" d="M554 404h100"/><path d="M354 202h105v5H354z" class="BoundingBox"/><path stroke="#000" stroke-width="4" d="M356 204h100"/><path d="M152 202h105v5H152z" class="BoundingBox"/><path stroke="#000" stroke-width="4" d="M154 204h100"/><path d="M552 202h105v5H552z" class="BoundingBox"/><path stroke="#000" stroke-width="4" d="M554 204h100"/><path d="M354 602h105v5H354z" class="BoundingBox"/><path stroke="#000" stroke-width="4" d="M356 604h100"/><path d="M152 602h105v5H152z" class="BoundingBox"/><path stroke="#000" stroke-width="4" d="M154 604h100"/><path d="M552 602h105v5H552z" class="BoundingBox"/><path stroke="#000" stroke-width="4" d="M554 604h100"/></g></g></g></g></g></svg>